<svg id="Layer_1" data-name="Layer 1" xmlns="http://www.w3.org/2000/svg" xmlns:xlink="http://www.w3.org/1999/xlink" viewBox="0 0 22.23 470.83" width="22.23px" heigh="470.83px"><defs><style>.cls-1{fill:none;}.cls-2{fill:#822470;}.cls-3{clip-path:url(#clip-path);}.cls-4{fill:#4e4e50;}.cls-5{fill:#e2e2e2;}.cls-6{fill:#4d4d4f;}.cls-7{fill:#840c6f;}</style><clipPath id="clip-path" transform="translate(-5.87 -13.47)"><rect class="cls-1" x="6" y="52.86" width="22" height="8.2"/></clipPath></defs><title>Sprite file</title><path class="cls-2" d="M16.7,58.5c-.1,0-.1,0-.2-.1l-1.2-1.2a.28.28,0,0,1,.4-.4l1,1L19,55.5a.28.28,0,0,1,.4.4l-2.5,2.5C16.8,58.5,16.8,58.5,16.7,58.5Z" transform="translate(-5.87 -13.47)"/><g class="cls-3"><path class="cls-4" d="M17.3,61.06A4.1,4.1,0,1,1,21.4,57,4.12,4.12,0,0,1,17.3,61.06Zm0-7.7A3.6,3.6,0,1,0,20.9,57,3.65,3.65,0,0,0,17.3,53.36Z" transform="translate(-5.87 -13.47)"/></g><g class="cls-3"><path class="cls-5" d="M25.6,54.56H22a.3.3,0,1,1,0-.6h3.6a.32.32,0,0,1,.3.3Q25.75,54.56,25.6,54.56Z" transform="translate(-5.87 -13.47)"/></g><g class="cls-3"><path class="cls-5" d="M9.8,57.26H6.3a.3.3,0,0,1,0-.6H9.9c.1,0,.2.2.2.3A.32.32,0,0,1,9.8,57.26Z" transform="translate(-5.87 -13.47)"/></g><g class="cls-3"><path class="cls-5" d="M26.2,59.56H22.6a.3.3,0,1,1,0-.6h3.6a.3.3,0,0,1,0,.6Z" transform="translate(-5.87 -13.47)"/></g><g class="cls-3"><path class="cls-5" d="M27.2,57h-2a.32.32,0,0,1-.3-.3.27.27,0,0,1,.3-.3h2a.32.32,0,0,1,.3.3A.27.27,0,0,1,27.2,57Z" transform="translate(-5.87 -13.47)"/></g><g class="cls-3"><path class="cls-5" d="M10.3,59.56h-2a.32.32,0,0,1-.3-.3.45.45,0,0,1,.3-.3h2a.3.3,0,1,1,0,.6Z" transform="translate(-5.87 -13.47)"/></g><g class="cls-3"><path class="cls-5" d="M11.9,54.66h-2a.32.32,0,0,1-.3-.3.27.27,0,0,1,.3-.3h2a.3.3,0,1,1,0,.6Z" transform="translate(-5.87 -13.47)"/></g><g class="cls-3"><path class="cls-5" d="M27.4,54.66a.4.4,0,1,1,.4-.4A.43.43,0,0,1,27.4,54.66Zm0-.5a.1.1,0,1,0,.1.1A.1.1,0,0,0,27.4,54.16Z" transform="translate(-5.87 -13.47)"/></g><g class="cls-3"><path class="cls-5" d="M8.2,54.66a.4.4,0,1,1,.4-.4A.43.43,0,0,1,8.2,54.66Zm0-.5c-.1,0-.2,0-.2.1a.1.1,0,0,0,.2,0C8.3,54.16,8.2,54.16,8.2,54.16Z" transform="translate(-5.87 -13.47)"/></g><g class="cls-3"><path class="cls-5" d="M27.6,59.56a.4.4,0,1,1,.4-.4A.43.43,0,0,1,27.6,59.56Zm0-.6a.1.1,0,1,0,.1.1A.1.1,0,0,0,27.6,59Z" transform="translate(-5.87 -13.47)"/></g><g class="cls-3"><path class="cls-5" d="M12,59.56a.4.4,0,1,1,.4-.4A.43.43,0,0,1,12,59.56Zm0-.6a.1.1,0,1,0,.1.1A.1.1,0,0,0,12,59Z" transform="translate(-5.87 -13.47)"/></g><g class="cls-3"><path class="cls-5" d="M23.8,57a.4.4,0,1,1,.4-.4A.43.43,0,0,1,23.8,57Zm0-.5a.1.1,0,0,0-.1.1l.1.1a.1.1,0,0,0,.1-.1Z" transform="translate(-5.87 -13.47)"/></g><g class="cls-3"><path class="cls-5" d="M11.2,57.46a.4.4,0,1,1,.4-.4A.37.37,0,0,1,11.2,57.46Zm0-.5a.1.1,0,1,0,.1.1C11.4,57.06,11.3,57,11.2,57Z" transform="translate(-5.87 -13.47)"/></g><path class="cls-4" d="M17,35.47a11,11,0,1,1,11-11A11,11,0,0,1,17,35.47Zm0-20.6a9.6,9.6,0,1,0,9.6,9.6A9.6,9.6,0,0,0,17,14.87Z" transform="translate(-5.87 -13.47)"/><path class="cls-2" d="M17,26.57a.68.68,0,0,1-.7-.7V19a.7.7,0,0,1,1.4,0v6.9A.68.68,0,0,1,17,26.57Z" transform="translate(-5.87 -13.47)"/><path class="cls-2" d="M17,30.67a1.4,1.4,0,1,1,1.4-1.4A1.37,1.37,0,0,1,17,30.67Zm0-1.4Z" transform="translate(-5.87 -13.47)"/><path class="cls-4" d="M9.3,81.84a3.3,3.3,0,1,0,3.3,3.3A3.33,3.33,0,0,0,9.3,81.84Zm0,5a1.69,1.69,0,0,1-1.7-1.7,1.75,1.75,0,0,1,1.7-1.7,1.69,1.69,0,0,1,1.7,1.7A1.75,1.75,0,0,1,9.3,86.84Z" transform="translate(-5.87 -13.47)"/><path class="cls-4" d="M11.8,96.34a.79.79,0,0,1-.8-.8V92a1.7,1.7,0,1,0-3.4,0v3.5a.8.8,0,0,1-1.6,0V92a3.3,3.3,0,1,1,6.6,0v3.5C12.5,95.94,12.2,96.34,11.8,96.34Z" transform="translate(-5.87 -13.47)"/><path class="cls-2" d="M17,81.84a3.3,3.3,0,1,0,3.3,3.3A3.33,3.33,0,0,0,17,81.84Zm0,5a1.7,1.7,0,1,1,1.7-1.7A1.69,1.69,0,0,1,17,86.84Z" transform="translate(-5.87 -13.47)"/><path class="cls-2" d="M19.5,96.34a.79.79,0,0,1-.8-.8V92a1.7,1.7,0,1,0-3.4,0v3.5a.8.8,0,0,1-1.6,0V92a3.3,3.3,0,1,1,6.6,0v3.5A.86.86,0,0,1,19.5,96.34Z" transform="translate(-5.87 -13.47)"/><path class="cls-4" d="M24.7,81.84a3.3,3.3,0,1,0,3.3,3.3A3.33,3.33,0,0,0,24.7,81.84Zm0,5a1.69,1.69,0,0,1-1.7-1.7,1.75,1.75,0,0,1,1.7-1.7,1.7,1.7,0,0,1,0,3.4Z" transform="translate(-5.87 -13.47)"/><path class="cls-4" d="M27.2,96.34a.79.79,0,0,1-.8-.8V92A1.7,1.7,0,1,0,23,92v3.5a.8.8,0,0,1-1.6,0V92A3.3,3.3,0,1,1,28,92v3.5A.79.79,0,0,1,27.2,96.34Z" transform="translate(-5.87 -13.47)"/><path class="cls-4" d="M27.1,126.05h-11a.9.9,0,0,1,0-1.8h11a.9.9,0,0,1,0,1.8Z" transform="translate(-5.87 -13.47)"/><path class="cls-4" d="M27.1,129.55h-11a.9.9,0,1,1,0-1.8h11a.9.9,0,0,1,0,1.8Z" transform="translate(-5.87 -13.47)"/><path class="cls-2" d="M9.7,113.65a3.7,3.7,0,0,0,0,7.4,3.7,3.7,0,1,0,0-7.4Zm0,5.6a2,2,0,0,1-2-1.9,2,2,0,0,1,1.9-1.9,1.9,1.9,0,0,1,1.9,1.9A1.81,1.81,0,0,1,9.7,119.25Z" transform="translate(-5.87 -13.47)"/><path class="cls-2" d="M12.5,129.85a.9.9,0,0,1-.9-.9v-4a1.9,1.9,0,0,0-3.8,0v4A.9.9,0,0,1,6,129v-4a3.76,3.76,0,0,1,3.7-3.7,3.76,3.76,0,0,1,3.7,3.7v4A.9.9,0,0,1,12.5,129.85Z" transform="translate(-5.87 -13.47)"/><path class="cls-4" d="M19,121.45a.91.91,0,0,1-.7-.3l-1.7-2.3a.83.83,0,0,1,.2-1.2.75.75,0,0,1,1.2.1l1.3,1.7,5.7-3.6a.87.87,0,0,1,.9,1.5l-6.4,4.1Z" transform="translate(-5.87 -13.47)"/><path class="cls-4" d="M17.7,154.4a.47.47,0,0,0,.5-.5v-2.3a.76.76,0,0,0-.2-.4l-3.9-4c0-.1-.2-.2-.3-.2H6.5a.56.56,0,0,0-.5.6v14.7a.47.47,0,0,0,.5.5H17.7a.47.47,0,0,0,.5-.5v-2.4a.5.5,0,0,0-1,0v1.8H7.1V148.1h6.2v3.5a.47.47,0,0,0,.5.5h3.4v1.7A.56.56,0,0,0,17.7,154.4Zm-3.4-5.5,2.1,2.2H14.3Z" transform="translate(-5.87 -13.47)"/><path class="cls-4" d="M11.6,153.8H8.4a.5.5,0,0,0,0,1h3.1a.47.47,0,0,0,.5-.5C12.1,154.1,11.9,153.8,11.6,153.8Z" transform="translate(-5.87 -13.47)"/><path class="cls-4" d="M11.6,156.4H8.4a.5.5,0,0,0,0,1h3.1a.47.47,0,0,0,.5-.5C12.1,156.6,11.9,156.4,11.6,156.4Z" transform="translate(-5.87 -13.47)"/><path class="cls-2" d="M27.5,151H24.1a.5.5,0,1,0,0,1h2l-4.2,4.2-1.6-1.6a.6.6,0,0,0-.8,0l-5,5a.6.6,0,0,0,0,.8.5.5,0,0,0,.8,0l4.6-4.6,1.6,1.6a.6.6,0,0,0,.8,0l4.7-4.7v2.4a.5.5,0,0,0,1,0v-3.5A.56.56,0,0,0,27.5,151Z" transform="translate(-5.87 -13.47)"/><path class="cls-2" d="M18.3,184.7H9.7a.65.65,0,0,0-.6.6v3.6a.65.65,0,0,0,.6.6h8.6a.65.65,0,0,0,.6-.6v-3.6A.58.58,0,0,0,18.3,184.7Zm-.6,3.6H10.3v-2.4h7.4Z" transform="translate(-5.87 -13.47)"/><path class="cls-4" d="M27.4,177.7H12.3a.37.37,0,0,0-.3.1c-.1,0-.1,0-.2.1a.55.55,0,0,0-.3.5v3.1H6.6a.65.65,0,0,0-.6.6v13.2a.67.67,0,0,0,.6.7H21.7a.65.65,0,0,0,.6-.6v-3.2h5.1a.65.65,0,0,0,.6-.6V178.3A.65.65,0,0,0,27.4,177.7Zm-14.6,1.6,5.6,2.2H12.8Zm8.3,15.4H7.2v-12H21v12Zm5.7-3.8H22.3v-8.8h0v-.3a1243955404787.38,1243955404787.38,0,0,0-.2-.2H22l-.1-.1h0l-6.7-2.6H26.7v12Z" transform="translate(-5.87 -13.47)"/><path class="cls-4" d="M9.8,191.7a.6.6,0,0,0,0,1.2h8.6a.6.6,0,1,0,0-1.2Z" transform="translate(-5.87 -13.47)"/><path class="cls-4" d="M27.9,212.2a.47.47,0,0,0-.5-.5H11.9c-.3.1-.5.3-.5.5v7.4a.5.5,0,0,0,1,0v-6.9h.1c-.2.2-.2.5,0,.6l6.9,5.7a.5.5,0,0,0,.6,0l6.8-5.7c.1-.1.1-.1.1-.2l.1,9.7H15.6a.82.82,0,0,0-.6.4.42.42,0,0,0,.3.6H27.5a1,1,0,0,0,.3-.1.37.37,0,0,0,.1-.3ZM19.7,218l-6.3-5.3H26.1Zm7.2-5.3Z" transform="translate(-5.87 -13.47)"/><path class="cls-2" d="M15.4,220.8H8.6a.5.5,0,1,0,0,1h6.8a.5.5,0,1,0,0-1Z" transform="translate(-5.87 -13.47)"/><path class="cls-2" d="M11.8,225.2H6.5a.5.5,0,0,0,0,1h5.3a.5.5,0,1,0,0-1Z" transform="translate(-5.87 -13.47)"/><path class="cls-2" d="M13.1,223H9.8a.5.5,0,0,0,0,1h3.3a.47.47,0,0,0,.5-.5A.54.54,0,0,0,13.1,223Z" transform="translate(-5.87 -13.47)"/><path class="cls-2" d="M7.6,224H8a.47.47,0,0,0,.5-.5A.54.54,0,0,0,8,223H7.6a.47.47,0,0,0-.5.5A.54.54,0,0,0,7.6,224Z" transform="translate(-5.87 -13.47)"/><path class="cls-1" d="M19.1,246.3a7.35,7.35,0,0,1,1,6.6,6.91,6.91,0,0,1-2,3,6,6,0,0,0,2.7.6h1.8a3.61,3.61,0,0,1,2,.6l2.1,1.6h.1l.1-.1v-8.4a6.21,6.21,0,0,0-6.1-5.8,5.55,5.55,0,0,0-2.8.7C18.4,245.5,18.7,245.9,19.1,246.3Z" transform="translate(-5.87 -13.47)"/><path class="cls-1" d="M19,252.6a6.46,6.46,0,0,0-.8-5.6,6,6,0,0,0-4.9-2.5,5.92,5.92,0,0,0-6.1,5.7v8.5c0,.1,0,.1.1.1h.1l2.1-1.6a3,3,0,0,1,2-.6h1.7A6,6,0,0,0,19,252.6Z" transform="translate(-5.87 -13.47)"/><path class="cls-4" d="M28,250.1a7.23,7.23,0,0,0-7.2-6.8,7.3,7.3,0,0,0-3.8,1.1,8.65,8.65,0,0,1,1,.7,6.81,6.81,0,0,1,2.8-.7,6.13,6.13,0,0,1,6.1,5.8v8.4c0,.1,0,.1-.1.1h-.1l-2.1-1.6a3,3,0,0,0-2-.6H20.8a5.67,5.67,0,0,1-2.7-.6,3.59,3.59,0,0,1-1,.7,6.71,6.71,0,0,0,3.7,1.1h1.8a2,2,0,0,1,1.3.4l2.1,1.6a1.14,1.14,0,0,0,.8.3,1.27,1.27,0,0,0,.6-.1,1.36,1.36,0,0,0,.7-1.1v-8.3A.76.76,0,0,1,28,250.1Z" transform="translate(-5.87 -13.47)"/><path class="cls-2" d="M20,252.9a7.06,7.06,0,0,0-1-6.6,12,12,0,0,0-1.1-1.2,6.07,6.07,0,0,0-1-.7,6.47,6.47,0,0,0-3.7-1.1A7.23,7.23,0,0,0,6,250.1v8.6a1.23,1.23,0,0,0,.7,1.1,1.42,1.42,0,0,0,.6.2,1.33,1.33,0,0,0,.8-.3l2.1-1.6a1.92,1.92,0,0,1,1.2-.4h1.8a7,7,0,0,0,3.8-1.1,8.65,8.65,0,0,0,1-.7A6.37,6.37,0,0,0,20,252.9Zm-6.8,3.7H11.5a3.61,3.61,0,0,0-2,.6l-2.1,1.6H7.3l-.1-.1v-8.5a6,6,0,0,1,6-5.8,6,6,0,0,1,4.9,2.5,5.87,5.87,0,0,1,.8,5.6A5.74,5.74,0,0,1,13.2,256.6Z" transform="translate(-5.87 -13.47)"/><path class="cls-1" d="M16.4,250.8a.3.3,0,1,0,.3.3A.27.27,0,0,0,16.4,250.8Z" transform="translate(-5.87 -13.47)"/><path class="cls-1" d="M12.9,250.8a.3.3,0,1,0,.3.3A.27.27,0,0,0,12.9,250.8Z" transform="translate(-5.87 -13.47)"/><circle class="cls-1" cx="3.53" cy="237.63" r="0.3"/><path class="cls-4" d="M9.4,249.7a1.4,1.4,0,1,0,1.4,1.4A1.37,1.37,0,0,0,9.4,249.7Zm0,1.7a.3.3,0,1,1,.3-.3A.32.32,0,0,1,9.4,251.4Z" transform="translate(-5.87 -13.47)"/><path class="cls-4" d="M12.9,249.7a1.4,1.4,0,1,0,1.4,1.4A1.37,1.37,0,0,0,12.9,249.7Zm0,1.7a.3.3,0,1,1,.3-.3A.32.32,0,0,1,12.9,251.4Z" transform="translate(-5.87 -13.47)"/><path class="cls-4" d="M16.4,249.7a1.4,1.4,0,1,0,1.4,1.4A1.37,1.37,0,0,0,16.4,249.7Zm0,1.7a.3.3,0,1,1,.3-.3A.32.32,0,0,1,16.4,251.4Z" transform="translate(-5.87 -13.47)"/><rect class="cls-1" x="7.63" y="262.53" width="3.7" height="15.8"/><rect class="cls-1" x="12.63" y="274.33" width="8.3" height="4"/><rect class="cls-1" x="12.63" y="262.53" width="8.3" height="10.6"/><path class="cls-2" d="M9.9,277.7a.76.76,0,0,0,.4.2.52.52,0,0,0,.4-.2.64.64,0,0,0,.1-.9L8.9,275a.4.4,0,0,0-.4-.2.55.55,0,0,0-.5.2l-1.7,1.7a.56.56,0,0,0,0,.9.75.75,0,0,0,.9,0l.7-.7v13.9l-.8-.8a.75.75,0,0,0-.9,0,.75.75,0,0,0,0,.9L8,292.8c.2.1.3.2.5.2a.52.52,0,0,0,.4-.2l1.8-1.8a.75.75,0,0,0,0-.9.75.75,0,0,0-.9,0l-.8.8V276.8Z" transform="translate(-5.87 -13.47)"/><path class="cls-4" d="M26.9,274.8H13.4a1.11,1.11,0,0,0-1.1,1.1v16a1.11,1.11,0,0,0,1.1,1.1H26.9a1.11,1.11,0,0,0,1.1-1.1v-16A1.11,1.11,0,0,0,26.9,274.8Zm-9.7,17H13.5V276h3.7Zm9.6,0H18.5v-4h8.3Zm0-5.2H18.5V276h8.3Z" transform="translate(-5.87 -13.47)"/><polygon class="cls-1" points="8.72 300.73 8.72 306.03 8.82 306.03 13.43 303.43 13.43 303.33 8.82 300.63 8.72 300.73"/><path class="cls-1" d="M25.3,309.6H8.7a1.58,1.58,0,0,0-1.6,1.6v11.3a1.58,1.58,0,0,0,1.6,1.6H25.3a1.58,1.58,0,0,0,1.6-1.6V311.2A1.58,1.58,0,0,0,25.3,309.6Zm-5.4,8.2-4.6,2.7a1.42,1.42,0,0,1-.6.2,1.42,1.42,0,0,1-.6-.2,1.1,1.1,0,0,1-.6-1v-5.3a1.1,1.1,0,0,1,.6-1,1.27,1.27,0,0,1,1.2,0l4.6,2.7a1.1,1.1,0,0,1,.6,1A1,1,0,0,1,19.9,317.8Z" transform="translate(-5.87 -13.47)"/><path class="cls-4" d="M25.3,308.5H8.7A2.69,2.69,0,0,0,6,311.2v11.3a2.69,2.69,0,0,0,2.7,2.7H25.3a2.69,2.69,0,0,0,2.7-2.7V311.2A2.69,2.69,0,0,0,25.3,308.5Zm1.6,14a1.58,1.58,0,0,1-1.6,1.6H8.7a1.58,1.58,0,0,1-1.6-1.6V311.2a1.58,1.58,0,0,1,1.6-1.6H25.3a1.58,1.58,0,0,1,1.6,1.6Z" transform="translate(-5.87 -13.47)"/><path class="cls-2" d="M19.9,315.8l-4.6-2.7a1.27,1.27,0,0,0-1.2,0,1.1,1.1,0,0,0-.6,1v5.3a1.1,1.1,0,0,0,.6,1,1.42,1.42,0,0,0,.6.2,1.42,1.42,0,0,0,.6-.2l4.6-2.7a1.1,1.1,0,0,0,.6-1A1,1,0,0,0,19.9,315.8Zm-.6,1.1-4.6,2.7h-.1v-5.4h.1l4.6,2.7Z" transform="translate(-5.87 -13.47)"/><path class="cls-4" d="M21.9,352.3a.9.9,0,0,0-.9.9V355a.9.9,0,0,1-.9.9H8.6a.9.9,0,0,1-.9-.9V343.7a.9.9,0,0,1,.9-.9H20.1a.9.9,0,0,1,.9.9v1.5a.9.9,0,0,0,1.8,0v-1.5a2.69,2.69,0,0,0-2.7-2.7H8.6a2.69,2.69,0,0,0-2.7,2.7V355a2.69,2.69,0,0,0,2.7,2.7H20.1a2.69,2.69,0,0,0,2.7-2.7v-1.9A.88.88,0,0,0,21.9,352.3Z" transform="translate(-5.87 -13.47)"/><path class="cls-2" d="M8.9,345.3a.9.9,0,0,0,.9.9h.1a.82.82,0,0,0,.8-.9.88.88,0,0,0-.9-.8A1,1,0,0,0,8.9,345.3Z" transform="translate(-5.87 -13.47)"/><path class="cls-2" d="M12.7,344.5a.9.9,0,0,0,0,1.8h5.7a.9.9,0,1,0,0-1.8Z" transform="translate(-5.87 -13.47)"/><path class="cls-2" d="M27.7,343.1a.91.91,0,0,0-1.2,0l-9.3,9.3-2.5-2.5a.85.85,0,0,0-1.2,1.2l3.1,3.1a.75.75,0,0,0,1.2,0l10-10A.72.72,0,0,0,27.7,343.1Z" transform="translate(-5.87 -13.47)"/><path class="cls-2" d="M27.2,377.4h-2v-1.8h2a.79.79,0,0,0,.8-.8.86.86,0,0,0-.8-.8H18.9a.79.79,0,0,0-.8.8.86.86,0,0,0,.8.8h4.8v1.7H18.9a.79.79,0,0,0-.8.8.86.86,0,0,0,.8.8h4.6a2.18,2.18,0,0,1-.5.8c-.8.8-2.2,1.1-4.1,1a.75.75,0,0,0-.7.5.8.8,0,0,0,.2.9l5.4,5.5a.73.73,0,0,0,.6.2.76.76,0,0,0,.5-.2.78.78,0,0,0,0-1.1l-4.1-4.2a5.66,5.66,0,0,0,3.4-1.5,3.51,3.51,0,0,0,1-1.9h2.1a.79.79,0,0,0,.8-.8A1,1,0,0,0,27.2,377.4Z" transform="translate(-5.87 -13.47)"/><path class="cls-4" d="M19.7,385.9a.78.78,0,0,0-1.1,0l-1.2,1.2-1.2-1.2a.78.78,0,0,0-1.1,0l-1.2,1.2-1.3-1.3a.78.78,0,0,0-1.1,0L10.3,387l-1.2-1.2a.78.78,0,0,0-1.1,0l-.4.4V375.6h6.8a.8.8,0,0,0,0-1.6H6.8a.79.79,0,0,0-.8.8v13.4a.75.75,0,0,0,.5.7.63.63,0,0,0,.8-.2l1.2-1.2,1.2,1.2a.78.78,0,0,0,1.1,0l1.2-1.2,1.3,1.3a.78.78,0,0,0,1.1,0l1.2-1.2,1.2,1.2a.78.78,0,0,0,1.1,0l1.2-1.2,1.2,1.2a.73.73,0,0,0,.6.2,1.42,1.42,0,0,0,.6-.2.78.78,0,0,0,0-1.1Z" transform="translate(-5.87 -13.47)"/><path class="cls-4" d="M8.5,378.1a.86.86,0,0,0,.8.8h6.9a.8.8,0,0,0,0-1.6H9.3C8.9,377.4,8.5,377.7,8.5,378.1Z" transform="translate(-5.87 -13.47)"/><path class="cls-4" d="M16.2,380.8H11.8a.8.8,0,1,0,0,1.6h4.4a.8.8,0,0,0,0-1.6Z" transform="translate(-5.87 -13.47)"/><path class="cls-4" d="M8.8,381.1a.78.78,0,0,0,0,1.1.73.73,0,0,0,.6.2h0a.86.86,0,0,0,.8-.8.75.75,0,0,0-.5-.7A1,1,0,0,0,8.8,381.1Z" transform="translate(-5.87 -13.47)"/><path class="cls-4" d="M16,418.8a5.42,5.42,0,0,1-2.5.6,5.9,5.9,0,0,1,0-11.8,5.85,5.85,0,0,1,5.9,5.9.79.79,0,0,0,.8.8h0a.86.86,0,0,0,.8-.8,7.5,7.5,0,1,0-7.5,7.4,7.11,7.11,0,0,0,3.2-.7.73.73,0,0,0,.4-1A.87.87,0,0,0,16,418.8Z" transform="translate(-5.87 -13.47)"/><path class="cls-2" d="M16.3,411a.8.8,0,0,0,0-1.6h-5a.8.8,0,1,0,0,1.6h2.5v.4H11.3a.8.8,0,1,0,0,1.6h2.2a3.26,3.26,0,0,1-2.2.5.75.75,0,0,0-.7.5.8.8,0,0,0,.2.9l3.2,3.2a.73.73,0,0,0,.6.2.76.76,0,0,0,.5-.2.78.78,0,0,0,0-1.1L13,414.9a2.82,2.82,0,0,0,1.6-.9,2,2,0,0,0,.6-1.1h1a.8.8,0,0,0,0-1.6h-.7V411Z" transform="translate(-5.87 -13.47)"/><path class="cls-2" d="M27.8,411.2a.78.78,0,0,0-1.1,0l-6.3,6.3-2.2-2.2a.78.78,0,0,0-1.1,1.1l2.8,2.8a.73.73,0,0,0,1,0l6.9-6.9A.78.78,0,0,0,27.8,411.2Z" transform="translate(-5.87 -13.47)"/><path class="cls-1" d="M9.09,441.76A1.72,1.72,0,0,0,10.81,440a1.72,1.72,0,1,0-3.44,0A1.73,1.73,0,0,0,9.09,441.76Z" transform="translate(-5.87 -13.47)"/><path class="cls-1" d="M23.86,441.85a.74.74,0,0,1-.75-.75v-.31H17.69v.31a.75.75,0,0,1-1.5,0v-.31H14.87v1.5H26.33v-1.5H24.66v.31A.85.85,0,0,1,23.86,441.85Z" transform="translate(-5.87 -13.47)"/><path class="cls-1" d="M14.82,443.79v5.73H26.29v-5.73Zm8.34,1.72-3.31,3.31a.81.81,0,0,1-.53.22.86.86,0,0,1-.53-.22l-1.58-1.59a.72.72,0,0,1,0-1.06.71.71,0,0,1,1.05,0l1,1,2.78-2.78a.71.71,0,0,1,1.05,0A.82.82,0,0,1,23.16,445.51Z" transform="translate(-5.87 -13.47)"/><rect class="cls-6" x="11.82" y="425.78" width="5.38" height="1.54"/><path class="cls-6" d="M27.08,439.25H24.61v1.54h1.68v1.5H14.82v-1.5h1.33v-1.54H14.08a.74.74,0,0,0-.75.75v9.52h-1v-2.73a3.22,3.22,0,1,0-6.44,0v3.48a.74.74,0,0,0,.75.75.77.77,0,0,0,.75-.75v-3.48a1.72,1.72,0,0,1,1.72-1.72,1.69,1.69,0,0,1,1.72,1.72v3.48a.74.74,0,0,0,.75.75H27.13a.73.73,0,0,0,.74-.75V440A.84.84,0,0,0,27.08,439.25ZM14.82,449.57v-5.74H26.29v5.74Z" transform="translate(-5.87 -13.47)"/><path class="cls-7" d="M16.15,441.1a.75.75,0,0,0,1.5,0v-2.38a.75.75,0,0,0-1.5,0v2.38Z" transform="translate(-5.87 -13.47)"/><path class="cls-7" d="M23.07,441.1a.74.74,0,0,0,.75.75.77.77,0,0,0,.75-.75v-2.38a.74.74,0,0,0-.75-.75.77.77,0,0,0-.75.75v2.38Z" transform="translate(-5.87 -13.47)"/><path class="cls-6" d="M9.09,443.31a3.22,3.22,0,1,0-3.22-3.22A3.24,3.24,0,0,0,9.09,443.31Zm0-4.94a1.72,1.72,0,0,1,1.72,1.72,1.72,1.72,0,1,1-3.44,0A1.73,1.73,0,0,1,9.09,438.37Z" transform="translate(-5.87 -13.47)"/><path class="cls-7" d="M22.06,444.45l-2.78,2.78-1-1a.74.74,0,1,0-1.05,1l1.58,1.59a.86.86,0,0,0,.53.22.81.81,0,0,0,.53-.22l3.31-3.31a.71.71,0,0,0,0-1.05A.73.73,0,0,0,22.06,444.45Z" transform="translate(-5.87 -13.47)"/><path class="cls-1" d="M9.23,474.71A1.73,1.73,0,0,0,11,473a1.77,1.77,0,0,0-1.73-1.78,1.73,1.73,0,0,0-1.73,1.73A1.81,1.81,0,0,0,9.23,474.71Z" transform="translate(-5.87 -13.47)"/><path class="cls-1" d="M24,474.71a.8.8,0,0,1-.8-.8v-.22h-5.5V474a.8.8,0,0,1-1.6,0v-.31H14.74v1.55H26.5v-1.55H24.77v.22A.8.8,0,0,1,24,474.71Z" transform="translate(-5.87 -13.47)"/><path class="cls-1" d="M14.78,476.79v5.87H26.5v-5.87Zm7.86,3.65H21.35v1.28a.8.8,0,0,1-1.6,0v-1.28H18.47a.8.8,0,1,1,0-1.6h1.28v-1.29a.8.8,0,1,1,1.6,0v1.29h1.29a.8.8,0,0,1,.8.8A.77.77,0,0,1,22.64,480.44Z" transform="translate(-5.87 -13.47)"/><rect class="cls-6" x="11.79" y="458.66" width="5.55" height="1.55"/><path class="cls-7" d="M16.11,474a.8.8,0,0,0,1.6,0v-2.4a.8.8,0,0,0-1.6,0V474Z" transform="translate(-5.87 -13.47)"/><path class="cls-6" d="M28.1,476a.31.31,0,0,0,0-.18v-2.93a.8.8,0,0,0-.8-.8H24.73v1.56h1.73v1.55H14.78v-1.55h1.33v-1.56H14a.8.8,0,0,0-.8.8v9.77h-.62v-2.8a3.33,3.33,0,0,0-6.66,0v3.6a.8.8,0,0,0,1.6,0v-3.6a1.74,1.74,0,0,1,1.73-1.73A1.76,1.76,0,0,1,11,479.9v3.6a.8.8,0,0,0,.8.8H27.3a.8.8,0,0,0,.8-.8V476ZM15,482.7h-.22v-5.91H26.55v5.91Z" transform="translate(-5.87 -13.47)"/><path class="cls-7" d="M22.64,478.88H21.35v-1.29a.8.8,0,0,0-1.6,0v1.29H18.47a.8.8,0,1,0,0,1.6h1.28v1.29a.8.8,0,0,0,1.6,0v-1.29h1.29a.8.8,0,0,0,0-1.6Z" transform="translate(-5.87 -13.47)"/><path class="cls-7" d="M23.22,473.91a.8.8,0,0,0,1.6,0v-2.44a.8.8,0,0,0-1.6,0v2.44Z" transform="translate(-5.87 -13.47)"/><path class="cls-6" d="M9.23,476.26a3.33,3.33,0,1,0-3.33-3.33A3.35,3.35,0,0,0,9.23,476.26Zm0-5.06A1.73,1.73,0,0,1,11,472.93a1.73,1.73,0,1,1-1.73-1.73Z" transform="translate(-5.87 -13.47)"/></svg>