<?xml version="1.0" encoding="utf-8"?>
<!-- Generator: Adobe Illustrator 23.0.1, SVG Export Plug-In . SVG Version: 6.00 Build 0)  -->
<svg version="1.1" id="Layer_1" xmlns="http://www.w3.org/2000/svg" xmlns:xlink="http://www.w3.org/1999/xlink" x="0px" y="0px"
	 viewBox="0 0 142.9 119.89" style="enable-background:new 0 0 142.9 119.89;" xml:space="preserve">
<style type="text/css">
	.st0{fill:#DBB467;}
	.st1{fill:#850C70;}
</style>
<g>
	<path class="st0" d="M94.84,71.66c-2.56-0.47-3.92-2.67-4.28-3.34c-5.24,7.03-13.7,10.94-19.11,12.98
		c-5.41-2.04-13.87-5.94-19.11-12.98c-0.36,0.67-1.73,2.87-4.28,3.34c0,0,0.44,1.85-1.02,3.01c2.5,2.77,10.21,10.72,24.41,14.54
		c14.2-3.82,21.91-11.78,24.41-14.54C94.41,73.51,94.84,71.66,94.84,71.66"/>
	<path class="st0" d="M94,47.92c0,21.25-22.55,28.65-22.55,28.65s-22.54-7.4-22.54-28.65V31.64c0,0,6.54-3.93,22.54-7.21
		C87.45,27.7,94,31.64,94,31.64V47.92z M71.76,22.91l-0.31-0.07l-0.31,0.07c-16.07,3.29-22.76,7.23-23.03,7.4l-0.75,0.45v17.16
		c0,9.18,4.1,17.31,11.85,23.51c5.79,4.63,11.52,6.54,11.76,6.62l0.48,0.16l0.48-0.16c0.24-0.08,5.97-1.99,11.76-6.62
		c7.76-6.2,11.85-14.33,11.85-23.51V30.76l-0.75-0.45C94.52,30.14,87.84,26.2,71.76,22.91"/>
	<path class="st0" d="M85.59,17.14c0.82-0.29,4.82-1.2,5.28,0.94c0,0,1.34-2.9-1.71-3.83c0,0,0.97-1.27,3.12-0.81
		c1.07,0.23,2.12,0.79,2.63,2.14c0.21,0.57,0.35,1.71,0.1,2.41c-0.31-0.38-0.79-0.62-1.32-0.62c-0.95,0-1.72,0.77-1.72,1.71
		c0,0.95,0.77,1.71,1.72,1.71c0.37,0,0.71-0.11,0.99-0.31c0,0,0.47-0.29,0.98-1.06c0.88-1.35,1.95-3.78,0.09-6.83
		c0,0-3.33-5.43-10.54-0.64c0,0-3.17,2.52-5.9,0.97c-1.21-0.54-2.06-1.78-2.06-3.24c0-0.4,0.07-0.77,0.18-1.12
		c0.03-0.07,0.05-0.15,0.08-0.22c0.05-0.14,0.11-0.28,0.18-0.41c0.11-0.2,0.24-0.39,0.39-0.56l0.12-0.13
		c0.11-0.12,0.23-0.23,0.36-0.34l0.18-0.13c0.13-0.09,0.27-0.17,0.41-0.24l0.18-0.09c0.21-0.09,0.42-0.16,0.64-0.21
		c-0.63,0.48-0.96,1.3-0.78,2.13c0.26,1.14,1.38,1.87,2.53,1.62c1.08-0.24,1.78-1.26,1.65-2.33l0.01,0.02l-0.03-0.18l-0.01-0.04
		c-0.03-0.12-0.07-0.23-0.11-0.34l-0.03-0.07l0-0.01c-0.07-0.17-0.16-0.35-0.26-0.5c-0.47-0.68-1.29-1.44-2.6-1.5
		c-0.69-0.03-1.64,0.26-1.97,0.4c-0.83,0.32-2.34,1.17-2.89,3.09C73.7,14.8,79.84,19.16,85.59,17.14"/>
	<path class="st0" d="M95.54,25.11l-0.75-0.45c-0.28-0.17-6.96-4.11-23.03-7.4l-0.31-0.06l-0.31,0.06
		c-16.07,3.29-22.76,7.23-23.03,7.4l-0.75,0.45v3.85l0.75-0.45c0.28-0.17,6.96-4.11,23.03-7.4l0.31-0.07l0.31,0.07
		c16.07,3.29,22.76,7.23,23.03,7.4l0.75,0.45V25.11z"/>
	<path class="st0" d="M96.94,22.85L96.94,22.85c0.18,1.04,1.06,1.84,2.15,1.89c1.26,0.06,2.33-0.92,2.39-2.18
		c0.05-1.01-0.56-1.88-1.45-2.23l0-0.01l-0.11-0.04c-0.07-0.02-0.15-0.05-0.22-0.07c-0.13-0.03-0.27-0.05-0.41-0.06
		c-1.26-0.06-2.33,0.92-2.39,2.18c-0.01,0.17,0.01,0.33,0.03,0.49V22.85z"/>
	<path class="st0" d="M68.31,5.57c0.62,0.66,1.89,1.88,2.91,5.44h0.01c0.03,0.08,0.12,0.15,0.22,0.15c0.1,0,0.19-0.06,0.23-0.15h0
		c1.02-3.56,2.3-4.78,2.91-5.44l0-0.01c0.07-0.1,0.12-0.23,0.12-0.36c0-0.3-0.21-0.55-0.5-0.6l0,0l-0.1-0.01h-2.66h0h-2.66
		l-0.1,0.01l0,0c-0.28,0.05-0.5,0.3-0.5,0.6c0,0.13,0.04,0.26,0.12,0.36L68.31,5.57z"/>
	<path class="st0" d="M68.43,1.49c0.72,0.11,1.27,0.74,1.27,1.49v0.07h-0.24c-0.16,0-0.28,0.12-0.28,0.28
		c0,0.15,0.12,0.28,0.28,0.28h1.99h2c0.16,0,0.29-0.12,0.29-0.28c0-0.16-0.13-0.28-0.29-0.28h-0.24V2.98c0-0.75,0.55-1.37,1.27-1.49
		c0.14-0.02,0.24-0.14,0.24-0.28V1.14c0-0.08-0.03-0.16-0.1-0.21c-0.06-0.06-0.14-0.08-0.23-0.06c-0.54,0.08-1.03,0.36-1.37,0.8
		V1.62v0l0-0.04v0l0-0.04v0l-0.01-0.08l0-0.04v0L73,1.37l-0.01-0.04v0l-0.01-0.04l-0.01-0.04v0v0l-0.01-0.04v0l-0.01-0.04
		l-0.01-0.04V1.13L72.93,1.1V1.09l-0.01-0.04v0L72.9,1.02v0l-0.01-0.03v0l-0.01-0.03l-0.02-0.04l-0.02-0.03v0l-0.02-0.03h0L72.8,0.8
		l0,0l-0.02-0.03v0l-0.02-0.03v0L72.74,0.7l-0.02-0.03V0.67l-0.01,0l-0.02-0.02l-0.02-0.03l-0.01,0l-0.02-0.03l-0.02-0.03l0,0l0,0
		l-0.02-0.02l-0.03-0.03l-0.02-0.03h0l-0.02-0.02l0-0.01l-0.03-0.02V0.41l-0.02-0.02h0l-0.03-0.02v0L72.4,0.34l-0.03-0.02
		l-0.03-0.02h-0.01l-0.06-0.05l-0.03-0.02v0L72.2,0.2l-0.03-0.02h0l-0.03-0.02L72.1,0.15l-0.04-0.02l-0.04-0.02L72,0.11l-0.04-0.02
		h0l-0.03-0.01l-0.04-0.01h0l-0.04-0.01l-0.04-0.01l-0.03-0.01l-0.04-0.01l-0.04-0.01v0l-0.04-0.01l-0.04-0.01l-0.04,0l-0.04,0
		h-0.04l-0.04,0l-0.04,0h0h-0.04l-0.04,0h0l-0.03,0l-0.04,0.01l-0.04,0.01v0l-0.04,0.01l-0.04,0.01L71.1,0.05l-0.04,0.01l-0.04,0.01
		h0l-0.04,0.01l-0.04,0.01l-0.04,0.02l-0.04,0.01l-0.03,0.02l-0.04,0.02h0l-0.03,0.02l-0.03,0.02h0L70.71,0.2l-0.03,0.02v0
		l-0.04,0.02l-0.06,0.05l-0.03,0.02h0l-0.03,0.02l-0.04,0.02l0,0l-0.03,0.02l-0.02,0.02l-0.01,0.01L70.4,0.44v0.01l-0.03,0.02
		l-0.03,0.03h0l-0.02,0.03L70.3,0.54l-0.01,0v0l-0.03,0.03l-0.03,0.03v0l-0.02,0.03L70.2,0.66l0,0v0.01L70.17,0.7h0l-0.02,0.03l0,0
		l-0.02,0.03v0L70.11,0.8l-0.01,0l-0.02,0.04l-0.02,0.03v0l-0.02,0.03l-0.02,0.04h0l-0.02,0.03v0l-0.01,0.03l0,0l-0.01,0.03v0
		l-0.01,0.04V1.1l-0.02,0.03v0.01l-0.01,0.04l-0.01,0.04v0l-0.01,0.04v0v0l-0.01,0.04l-0.01,0.04v0l-0.01,0.04L69.9,1.4v0
		l-0.01,0.04l-0.01,0.08v0l0,0.04v0v0.04v0l0,0.04c-0.34-0.43-0.83-0.71-1.37-0.8c-0.08-0.02-0.16,0.01-0.23,0.06
		c-0.06,0.05-0.1,0.13-0.1,0.21v0.07C68.19,1.35,68.29,1.47,68.43,1.49"/>
	<path class="st0" d="M101.6,65.89l0.05,0.01c-0.31-0.23-0.61-0.36-0.96-0.51c-1.42-0.6-3.39,0.36-3.63,0.48
		c-0.13,0.06-0.25,0.12-0.38,0.16c-0.32,0.13-0.61,0.19-0.88,0.24c-0.18,0.03-0.36,0.03-0.54,0.01c-1.16-0.14-1.98-1.24-1.82-2.45
		c0.05-0.43,0.22-0.81,0.46-1.12c-1.36,0.16-1.93,1.85-1.93,1.85c-0.88,2.7,1.15,4.29,2.22,4.92c0.16,0.09,0.4,0.21,0.64,0.31
		c0.31,0.14,1.8,0.55,2.15,0.71c0.12,0.06,0.23,0.12,0.34,0.18c0.24,0.12,0.45,0.3,0.62,0.5c-0.6,0.08-1.07,0.57-1.11,1.19
		c-0.02,0.3,0.06,0.57,0.22,0.81l0.24,0.27l0.01,0.01l0.27,0.18c0.24,0.12,0.49,0.19,0.77,0.21c0.71,0.04,1.37-0.29,1.79-0.84
		L100.12,73l0.01-0.01l0.07-0.11l0.01-0.03c0.08-0.12,0.15-0.24,0.2-0.38l0.04-0.11c0.07-0.19,0.12-0.4,0.14-0.61
		c0.02-0.24,0-0.46-0.05-0.67c-0.15-0.67-0.74-1.4-1.09-1.87l-0.01-0.01l-0.09-0.14l-0.02-0.02c-0.06-0.08-0.09-0.15-0.11-0.2
		c-0.17-0.35-0.25-0.75-0.2-1.16c0.06-0.46,0.27-0.87,0.57-1.18c-0.19,0.49-0.07,1.07,0.34,1.45c0.54,0.49,1.38,0.45,1.87-0.09
		c0.49-0.54,0.45-1.38-0.09-1.87L101.6,65.89z"/>
	<path class="st0" d="M106.59,59.09c-0.02-0.13-0.08-0.35-0.15-0.56v0c-0.07-0.22-0.15-0.42-0.19-0.53l-0.01-0.01l0-0.01l-0.02-0.05
		c-0.18,0.96-0.41,1.99-1.45,2.62c-1.9,1.15-4.04-0.31-4.11-2.71c-0.01-0.25,0-0.49,0.01-0.72c0.09,0.08,0.19,0.15,0.3,0.21
		c0,0,1.63,1.03,2.92-0.16c0,0,0.43-0.42,0.44-0.98c-0.43,0.24-0.92,0.36-1.35,0.28c-0.99-0.19-1.75-1.16-1.3-2.46
		c0.03-0.1,0.07-0.19,0.1-0.28c0.49-0.97,0.92-1.93,0.76-3.46c-0.01-0.13-0.04-0.27-0.08-0.42c-0.02-0.07-0.06-0.15-0.08-0.22
		c-0.03-0.08-0.05-0.15-0.08-0.23c-0.04-0.08-0.09-0.16-0.13-0.24c-0.04-0.07-0.07-0.15-0.12-0.22c-0.05-0.08-0.11-0.15-0.16-0.23
		c-0.05-0.07-0.1-0.14-0.16-0.21c-0.06-0.07-0.13-0.13-0.19-0.19c-0.07-0.07-0.14-0.14-0.21-0.2c-0.07-0.06-0.15-0.1-0.22-0.15
		c-0.09-0.06-0.17-0.12-0.26-0.16c-0.08-0.04-0.16-0.07-0.25-0.1c-0.1-0.04-0.2-0.08-0.31-0.11c-0.09-0.02-0.18-0.03-0.27-0.04
		c-0.08-0.01-0.16-0.04-0.25-0.04h-0.2h0l0,0c0,0-0.24,0.01-0.37,0.03c-0.79,0.18-1.27,0.96-1.1,1.75c0.18,0.79,0.96,1.28,1.74,1.1
		c0.17-0.04,0.32-0.12,0.46-0.21l0.1-0.06c0.12-0.1,0.22-0.21,0.31-0.33l0.06-0.11l0.06-0.1c-0.03,0.63-0.3,1.16-0.63,1.6
		c-0.25,0.34-1.39,1.57-1.63,1.9c-0.6,0.78-1.09,1.45-1.39,2.21c-1.37,3.49,0.17,6.72,2.23,7.74c0.99,0.49,2.29,0.97,3.96,0.6
		c0.55-0.12,1.28-0.42,1.7-0.79c0.09-0.08,0.19-0.17,0.28-0.26c0.56-0.55,1.01-1.24,1.16-1.84
		C106.66,60.19,106.65,59.6,106.59,59.09"/>
	<path class="st0" d="M45.06,71.17c0.17-0.2,0.38-0.37,0.61-0.5c0.1-0.06,0.22-0.12,0.34-0.18c0.35-0.16,1.83-0.57,2.15-0.71
		c0.24-0.11,0.49-0.22,0.64-0.31c1.07-0.63,3.09-2.22,2.21-4.92c0,0-0.57-1.69-1.93-1.85c0.24,0.31,0.41,0.7,0.46,1.12
		c0.15,1.21-0.67,2.31-1.82,2.45c-0.18,0.02-0.37,0.02-0.55-0.01c-0.27-0.04-0.56-0.11-0.89-0.23c-0.12-0.05-0.24-0.1-0.37-0.17
		c-0.25-0.12-2.21-1.09-3.63-0.48c-0.35,0.15-0.65,0.29-0.96,0.52l0.05-0.01l-0.12,0.07c-0.54,0.49-0.58,1.33-0.09,1.87
		c0.49,0.55,1.33,0.58,1.87,0.09c0.41-0.38,0.53-0.95,0.35-1.44c0.3,0.31,0.5,0.72,0.56,1.18c0.06,0.41-0.02,0.82-0.19,1.16
		c-0.02,0.06-0.06,0.12-0.12,0.21l-0.01,0.02l-0.09,0.13l-0.01,0.01c-0.34,0.47-0.94,1.2-1.09,1.87c-0.05,0.21-0.07,0.44-0.05,0.67
		c0.02,0.21,0.07,0.4,0.13,0.59l0.06,0.15c0.04,0.11,0.1,0.21,0.16,0.3l0.06,0.1l0.06,0.09L42.88,73l-0.01-0.01
		c0.43,0.55,1.08,0.89,1.8,0.84c0.28-0.02,0.54-0.09,0.77-0.21l0.27-0.18l0.02-0.02l0.23-0.26c0.15-0.23,0.24-0.51,0.21-0.81
		C46.13,71.73,45.66,71.25,45.06,71.17"/>
	<path class="st0" d="M48.16,20.48c0.28,0.2,0.62,0.32,0.99,0.32c0.94,0,1.72-0.77,1.72-1.71c0-0.94-0.77-1.71-1.71-1.71
		c-0.53,0-1.01,0.24-1.32,0.62c-0.24-0.7-0.11-1.84,0.11-2.41c0.51-1.35,1.55-1.91,2.63-2.14c2.15-0.46,3.12,0.8,3.12,0.8
		c-3.04,0.94-1.7,3.84-1.7,3.84c0.45-2.14,4.44-1.23,5.27-0.94c5.76,2.01,11.9-2.34,10.11-8.63c-0.55-1.93-2.07-2.77-2.9-3.09
		c-0.33-0.13-1.28-0.43-1.97-0.4c-1.3,0.06-2.13,0.82-2.59,1.5c-0.11,0.15-0.19,0.33-0.27,0.5l0,0.01L59.61,7.1
		c-0.05,0.11-0.08,0.22-0.11,0.34l-0.01,0.04l-0.03,0.18l0.01-0.02c-0.13,1.08,0.57,2.09,1.65,2.33c1.14,0.25,2.27-0.48,2.53-1.62
		c0.18-0.83-0.15-1.65-0.78-2.13c0.22,0.04,0.44,0.12,0.64,0.21l0.18,0.09c0.14,0.07,0.28,0.15,0.41,0.24l0.17,0.13
		c0.13,0.1,0.25,0.22,0.36,0.34l0.12,0.13c0.15,0.17,0.28,0.36,0.39,0.57l0.01,0.02c0.07,0.13,0.13,0.27,0.18,0.41l0.07,0.19
		c0.12,0.36,0.19,0.74,0.19,1.13c-0.01,1.46-0.85,2.71-2.06,3.24c-2.73,1.55-5.9-0.97-5.9-0.97c-7.22-4.79-10.55,0.64-10.55,0.64
		c-1.86,3.05-0.79,5.48,0.1,6.83C47.69,20.19,48.16,20.48,48.16,20.48"/>
	<path class="st0" d="M43.59,24.74c1.09-0.05,1.97-0.85,2.15-1.89l0-0.01c0.03-0.16,0.04-0.33,0.03-0.5
		c-0.06-1.26-1.13-2.24-2.39-2.18c-0.14,0.01-0.27,0.03-0.41,0.06c-0.07,0.02-0.14,0.04-0.21,0.07l-0.12,0.04v0.01
		c-0.88,0.35-1.49,1.22-1.45,2.23C41.25,23.82,42.32,24.79,43.59,24.74"/>
	<path class="st0" d="M45.73,55.28c-0.3-0.76-0.79-1.43-1.39-2.21c-0.25-0.33-1.38-1.55-1.63-1.9c-0.34-0.45-0.6-0.98-0.63-1.6
		l0.07,0.11l0.05,0.09c0.09,0.13,0.19,0.24,0.32,0.34l0.09,0.06c0.14,0.09,0.29,0.17,0.47,0.21c0.78,0.18,1.56-0.31,1.74-1.1
		c0.18-0.78-0.31-1.56-1.09-1.75c-0.13-0.03-0.38-0.03-0.38-0.03v0h-0.01h0h-0.2c-0.09,0-0.16,0.03-0.25,0.04
		c-0.09,0.01-0.18,0.02-0.27,0.04c-0.11,0.03-0.22,0.07-0.33,0.11c-0.08,0.03-0.15,0.06-0.23,0.09c-0.1,0.05-0.2,0.12-0.29,0.18
		l-0.19,0.13c-0.09,0.07-0.16,0.15-0.24,0.23l-0.16,0.17c-0.07,0.08-0.13,0.16-0.19,0.25l-0.14,0.19c-0.05,0.08-0.09,0.17-0.14,0.25
		c-0.04,0.07-0.08,0.14-0.11,0.21c-0.04,0.08-0.06,0.16-0.09,0.24c-0.02,0.07-0.06,0.14-0.07,0.21c-0.04,0.15-0.07,0.29-0.08,0.42
		c-0.15,1.52,0.28,2.49,0.76,3.46c0.04,0.09,0.07,0.18,0.11,0.28c0.45,1.3-0.31,2.27-1.3,2.46c-0.43,0.08-0.92-0.04-1.35-0.28
		c0.01,0.56,0.44,0.98,0.44,0.98c1.29,1.19,2.93,0.16,2.93,0.16c0.11-0.06,0.21-0.13,0.3-0.21c0.01,0.23,0.02,0.47,0.01,0.72
		c-0.07,2.4-2.2,3.87-4.11,2.71c-1.04-0.63-1.27-1.66-1.45-2.62c0,0-0.05,0.12-0.1,0.29l-0.01,0.03c-0.03,0.09-0.07,0.19-0.1,0.29h0
		c-0.07,0.21-0.13,0.42-0.15,0.56c-0.06,0.51-0.07,1.1,0.07,1.65c0.15,0.59,0.6,1.29,1.16,1.84c0.09,0.09,0.19,0.17,0.28,0.25
		c0.42,0.37,1.15,0.67,1.7,0.79c1.67,0.36,2.96-0.12,3.95-0.61C45.56,61.99,47.1,58.77,45.73,55.28"/>
	<path class="st1" d="M70.52,118.03h1.87v1.87h-1.87V118.03z M68.95,118.96L68.95,118.96v0.01h0c-0.01,0.46-0.44,0.92-1.32,0.92
		c-0.89,0-7.25-0.19-12.59-0.28c-5.34-0.09-25.08-0.46-26.31-0.45c-1.22,0.02-1.25-0.08-1.25-0.2c0-0.12,0.03-0.22,1.25-0.2
		c1.22,0.02,20.97-0.35,26.31-0.44c5.34-0.1,11.7-0.29,12.59-0.29C68.51,118.03,68.94,118.49,68.95,118.96L68.95,118.96z
		 M115.43,118.96c0,0.12-0.03,0.22-1.25,0.2c-1.23-0.02-20.97,0.35-26.31,0.45c-5.34,0.1-11.7,0.28-12.59,0.28
		c-0.88,0-1.31-0.46-1.32-0.92h0v-0.01v-0.01h0c0.01-0.46,0.44-0.92,1.32-0.92c0.89,0,7.25,0.19,12.59,0.29
		c5.34,0.09,25.08,0.47,26.31,0.44C115.4,118.74,115.43,118.84,115.43,118.96 M108.03,102.16h10.45v1.39h-4.45v7.93h-0.91h-0.63
		h-0.48v-0.34c0.29,0,0.45-0.1,0.48-0.27v-7.32h-4.46V102.16z M122.25,110.08h8.21v1.39h-9.76v-7.94v-0.76
		c-0.03-0.18-0.19-0.28-0.48-0.28v-0.34h0.48h0.64h8.76v1.39h-7.85v2.4h5.46v1.39h-5.46V110.08z M62.32,100.82v-0.4h0.57h0h0.75
		h10.39v1.65h-9.31v2.84h6.47v1.65h-6.47v3.27h9.74v1.65H62.89v-9.07h0v-1.26C62.85,100.94,62.67,100.82,62.32,100.82
		 M103.33,103.48l2.37,4.52h-4.78L103.33,103.48z M102.01,102.77l-4.6,8.71h1.69l1.08-2.09h6.28l1.07,2.09h1.69l-4.93-9.32h-1.63
		h-0.31h-0.33h-0.47v0.34C101.83,102.49,101.98,102.59,102.01,102.77 M142.9,108.59c0,0.99-0.43,1.75-1.31,2.29
		c-0.88,0.54-2.14,0.81-3.77,0.81c-2.38,0-4.23-0.52-5.55-1.57l0.85-1.12c1.46,0.89,3.03,1.34,4.71,1.34c1.09,0,1.94-0.15,2.54-0.45
		c0.58-0.29,0.86-0.69,0.86-1.2c0-0.59-0.38-0.99-1.13-1.19c-0.39-0.1-1.46-0.21-3.19-0.32c-1.54-0.1-2.61-0.31-3.23-0.62
		c-0.72-0.36-1.08-0.96-1.08-1.82c0-0.88,0.41-1.57,1.23-2.07c0.82-0.5,1.98-0.76,3.47-0.76c2.01,0,3.69,0.46,5.05,1.38l-0.94,1.04
		c-1.38-0.7-2.79-1.05-4.22-1.05c-0.95,0-1.68,0.11-2.18,0.33c-0.51,0.22-0.76,0.53-0.76,0.93c0,0.42,0.27,0.71,0.81,0.9
		c0.39,0.14,1.02,0.24,1.89,0.29c1.28,0.08,2.14,0.15,2.55,0.21c1.17,0.15,2.03,0.44,2.58,0.86
		C142.63,107.22,142.9,107.82,142.9,108.59 M84.81,108.7c0-0.59-0.38-0.99-1.13-1.19c-0.39-0.1-1.46-0.21-3.19-0.32
		c-1.54-0.1-2.61-0.31-3.23-0.62c-0.72-0.36-1.08-0.96-1.08-1.82c0-0.88,0.41-1.57,1.23-2.07c0.82-0.5,1.98-0.76,3.47-0.76
		c2.01,0,3.69,0.46,5.04,1.38l-0.94,1.04c-1.38-0.7-2.79-1.05-4.22-1.05c-0.95,0-1.68,0.11-2.18,0.33
		c-0.51,0.22-0.76,0.53-0.76,0.93c0,0.42,0.27,0.71,0.81,0.9c0.38,0.14,1.02,0.24,1.89,0.29c1.29,0.08,2.14,0.15,2.55,0.21
		c1.17,0.15,2.03,0.44,2.58,0.86c0.56,0.42,0.84,1.02,0.84,1.79c0,0.99-0.44,1.75-1.31,2.29c-0.88,0.54-2.14,0.81-3.78,0.81
		c-2.38,0-4.22-0.52-5.54-1.57l0.85-1.12c1.46,0.89,3.03,1.34,4.71,1.34c1.09,0,1.94-0.15,2.54-0.45
		C84.52,109.6,84.81,109.2,84.81,108.7 M92.04,103.55h-4.46v-1.39h10.45v1.39h-4.45v7.93h-0.91h-0.63h0h-0.48v-0.34
		c0.29,0,0.44-0.1,0.48-0.27V103.55z M29.84,111.48l-2.52-3.55h-2.9v-1.39h3.77c1.19,0,1.79-0.48,1.79-1.44
		c0-1.03-0.64-1.55-1.93-1.55h-5.43v1.04v1.95v1.39v1.83v1.72h-1.55v-8.71c-0.04-0.17-0.19-0.27-0.47-0.27v-0.34h0.47h0h0.64h6.71
		c0.98,0,1.75,0.27,2.3,0.79c0.56,0.53,0.84,1.24,0.84,2.15c0,0.79-0.23,1.42-0.68,1.9c-0.42,0.45-1,0.73-1.74,0.85l2.5,3.63H29.84z
		 M17.04,102.16h0.91v9.32h-1.54v-5.26v-1.64v-1.8c-0.04-0.18-0.19-0.28-0.48-0.28v-0.34h0.48H17.04z M47.18,103.48l2.37,4.52h-4.78
		L47.18,103.48z M34.04,102.78v1.8v1.64v5.26h7.22h1.53h0.17l1.07-2.09h6.28l1.08,2.09h1.69l-4.93-9.32H46.5h-0.31h-0.33h-0.48v0.34
		c0.29,0,0.44,0.1,0.47,0.28l-3.87,7.31h-6.41v-7.93h-0.91h-0.63h-0.48v0.34C33.85,102.49,34.01,102.59,34.04,102.78 M9.39,109.83
		H2.4v-3.13h7.28c1.33,0,2,0.54,2,1.62C11.68,109.32,10.92,109.83,9.39,109.83 M2.4,102.07H9.6c0.53,0,0.95,0.13,1.25,0.4
		c0.3,0.27,0.46,0.62,0.46,1.07c0,0.42-0.17,0.78-0.51,1.07c-0.34,0.29-0.77,0.44-1.27,0.44H2.4V102.07z M11.67,105.78
		c0.96-0.55,1.43-1.33,1.43-2.33c0-0.92-0.32-1.65-0.96-2.2c-0.64-0.55-1.52-0.82-2.64-0.82H1.32H0.57h0H0v0.4
		c0.34,0,0.52,0.11,0.56,0.32v10.33h8.81c2.79,0,4.18-0.97,4.18-2.9C13.56,107.13,12.93,106.21,11.67,105.78"/>
	<path class="st1" d="M94,47.95C94,69.2,71.45,76.6,71.45,76.6s-22.55-7.4-22.55-28.66V31.66c0,0,6.54-3.93,22.55-7.21
		c16,3.28,22.55,7.21,22.55,7.21V47.95z"/>
	<path class="st0" d="M75.02,46.91l-0.01,0l-0.01,0l-0.01,0V46.9l-0.04-0.05l0.04-0.05v0l0.01,0l0.02-0.01l0.01,0
		c4.37-0.75,7.7-4.74,7.7-9.55c0-5.35-4.12-9.68-9.2-9.68c-4.9,0-8.86,3.57-9.18,9.09c-0.01,0.08-0.01,0.4-0.01,0.4v0.14v0.31v0.71
		v16.07c0.09,1.97-0.98,3.69-1.63,4.03v-1.51v-2.71v-4.87V37.8c0-0.27,0.01-0.51,0.01-0.73v-0.19v-0.14c0,0,0.01-0.32,0.02-0.4
		c0.12-2.15,0.8-4.1,1.88-5.56c-7.59,1.68-7.47,8.6-7.47,8.6l0,0.21v9.63v7.57v4.51v1.44c0.48-0.02,0.93-0.14,1.39-0.21
		c2.32-0.37,4.3-1.79,5.16-2.6c2.33-2.19,2.17-5.39,2.17-5.39v-0.37v-0.32h0V37.86l-0.01-0.02h0c0,0-0.2-5.26,3.48-7.32
		c0.58-0.32,1.25-0.56,2.03-0.7c0.11-0.02,1.2-0.16,2.22,0.26c0.62,0.26,1.2,0.63,1.61,1.02c1.47,1.43,2.38,3.92,2.38,6.69
		c0,4.51-2.49,8.2-5.61,8.39h-2.74h-1.61c0.01,0.84,0.71,1.53,1.61,1.61h2.14c3.59,0.04,6.62,1.89,7.74,4.46l0.01-0.01
		c0.55,1.22,0.87,2.58,0.87,4.01c0,4.49-3.05,8.27-7.18,9.38c-0.15,0.04-0.31,0.08-0.45,0.11l-2.84-2.99l0,0.01
		c-0.76-0.8-1.81-1.3-2.96-1.3c-2.24,0-4.06,1.85-4.16,4.18c0,0,0.86,0.24,1.3-0.1c0.24-0.18,0.31-0.49,0.41-0.75
		c0.39-1.02,1.34-1.73,2.45-1.73c0.73,0,1.38,0.31,1.86,0.81l0,0l2.27,2.4l2.26,2.38v-0.01l0.12,0.13c0.66,0,1.21,0,1.61-0.02h0.11
		c6.08-0.06,10.99-4.93,10.99-10.92C85.76,51.91,80.99,47.1,75.02,46.91"/>
	<polygon class="st1" points="52.09,71.16 52.18,71.16 52.58,71.56 52.58,71.65 50,74.22 50,74.28 50.8,75.08 50.8,75.17 
		50.45,75.52 50.36,75.52 49.09,74.25 49.09,74.16 	"/>
	<polygon class="st1" points="54.28,73.28 54.37,73.28 55.73,74.44 55.74,74.53 55.41,74.91 55.32,74.92 54.47,74.18 54.41,74.18 
		53.66,75.05 53.67,75.11 54.41,75.74 54.41,75.83 54.09,76.21 54,76.21 53.26,75.58 53.21,75.58 52.43,76.49 52.43,76.54 
		53.29,77.28 53.29,77.37 52.97,77.74 52.88,77.75 51.52,76.58 51.52,76.49 	"/>
	<path class="st1" d="M55.36,76.94c0.72-0.98,0.82-1.09,0.99-1.21c0.37-0.26,0.8-0.25,1.24,0.07c0.5,0.37,0.62,0.87,0.27,1.46
		l-0.09,0.03l-0.47-0.24l-0.03-0.08c0.18-0.29,0.16-0.52-0.05-0.67c-0.15-0.11-0.33-0.12-0.45-0.03c-0.1,0.08-0.14,0.11-0.85,1.08
		c-0.71,0.97-0.74,1.01-0.78,1.13c-0.05,0.15,0.02,0.32,0.16,0.42c0.15,0.11,0.34,0.13,0.46,0.04c0.09-0.07,0.14-0.11,0.62-0.76
		l-0.01-0.05l-0.27-0.2l-0.01-0.09l0.28-0.38l0.09-0.01l0.78,0.58l0.01,0.09l-0.11,0.15c-0.71,0.97-0.82,1.08-0.99,1.2
		c-0.37,0.26-0.8,0.25-1.23-0.06c-0.43-0.32-0.57-0.73-0.43-1.16C54.56,78.05,54.64,77.92,55.36,76.94"/>
	<path class="st1" d="M59.03,80.28l0.6-1.54l-0.02-0.01l-1.14,1.2L59.03,80.28z M59.96,77.57l0.09-0.02l0.46,0.29l0.03,0.09
		l-1.48,4.08l-0.08,0.03l-0.46-0.29l-0.03-0.09l0.32-0.84l-0.73-0.46l-0.61,0.65l-0.1,0.02l-0.46-0.29l-0.01-0.08L59.96,77.57z"/>
	<path class="st1" d="M61.12,80.74c0.57-1.07,0.68-1.22,0.81-1.35c0.32-0.3,0.72-0.37,1.19-0.12c0.55,0.29,0.74,0.76,0.44,1.42
		l-0.07,0.05l-0.5-0.17l-0.03-0.08c0.16-0.34,0.12-0.54-0.1-0.66c-0.17-0.09-0.3-0.07-0.42,0.05c-0.08,0.08-0.13,0.15-0.69,1.19
		c-0.56,1.04-0.59,1.13-0.61,1.23c-0.03,0.16,0.02,0.29,0.19,0.38c0.22,0.12,0.41,0.04,0.6-0.28l0.09-0.02l0.42,0.32v0.09
		c-0.38,0.62-0.87,0.72-1.42,0.43c-0.47-0.25-0.64-0.62-0.56-1.06C60.48,81.98,60.55,81.82,61.12,80.74"/>
	<polygon class="st1" points="63.84,84.55 63.81,84.47 64.51,82.89 64.77,80.26 64.84,80.22 65.36,80.45 65.4,80.54 65.16,82.28 
		65.18,82.29 66.3,80.94 66.4,80.91 66.9,81.14 66.92,81.22 65.14,83.17 64.43,84.75 64.35,84.78 	"/>
	<path class="st1" d="M70.03,86.31c0.04-0.12,0.04-0.17,0.04-1.37c0-1.2,0-1.25-0.04-1.37c-0.04-0.15-0.19-0.24-0.37-0.24
		c-0.19,0-0.33,0.1-0.37,0.24c-0.04,0.12-0.04,0.17-0.04,1.37c0,1.2,0,1.25,0.04,1.37c0.05,0.15,0.19,0.24,0.37,0.24
		C69.84,86.56,69.98,86.46,70.03,86.31 M68.63,86.5c-0.07-0.19-0.08-0.35-0.08-1.56c0-1.21,0.02-1.37,0.08-1.56
		c0.14-0.43,0.49-0.68,1.03-0.68c0.53,0,0.89,0.25,1.03,0.68c0.06,0.19,0.08,0.35,0.08,1.56c0,1.21-0.02,1.37-0.08,1.56
		c-0.14,0.43-0.49,0.68-1.03,0.68C69.12,87.18,68.77,86.93,68.63,86.5"/>
	<polygon class="st1" points="72.15,82.82 72.22,82.76 74.01,82.76 74.07,82.82 74.07,83.32 74.01,83.38 72.88,83.38 72.84,83.42 
		72.84,84.6 72.88,84.64 73.85,84.64 73.92,84.7 73.92,85.2 73.85,85.26 72.88,85.26 72.84,85.3 72.84,87.06 72.78,87.12 
		72.22,87.12 72.15,87.06 	"/>
	<polygon class="st1" points="78.97,84.78 78.88,84.75 77.36,81.43 77.31,81.42 76.7,81.69 76.62,81.66 76.41,81.21 76.44,81.13 
		78.35,80.25 78.44,80.28 78.64,80.73 78.61,80.82 78,81.1 77.98,81.15 79.51,84.46 79.48,84.55 	"/>
	<path class="st1" d="M81.68,79.95c-0.25-0.45-0.47-0.51-0.81-0.32l-0.2,0.11l-0.01,0.05l0.62,1.11l0.05,0.02l0.2-0.11
		C81.86,80.62,81.94,80.41,81.68,79.95 M83.31,82.56l-0.08,0l-1.32-1.26l-0.1,0.05l-0.19,0.11l-0.02,0.05l0.82,1.47l-0.02,0.09
		l-0.49,0.27l-0.09-0.02l-2.07-3.7l0.03-0.09l0.77-0.43c0.68-0.38,1.26-0.31,1.72,0.53c0.28,0.5,0.29,0.91,0.09,1.23l1.46,1.35
		l0,0.07L83.31,82.56z"/>
	<path class="st1" d="M84.87,80.32l-1.79-2.65l0.02-0.09l0.46-0.31l0.09,0.02l1.84,2.72c0.15,0.23,0.38,0.29,0.59,0.15
		c0.21-0.14,0.23-0.37,0.07-0.6l-1.84-2.72l0.02-0.09l0.46-0.31l0.09,0.02l1.79,2.65c0.44,0.65,0.31,1.2-0.25,1.58
		C85.87,81.05,85.31,80.96,84.87,80.32"/>
	<path class="st1" d="M89.77,78.2c-0.55,0.45-1.07,0.38-1.57-0.2l-0.01-0.09l0.36-0.41h0.09c0.31,0.35,0.52,0.4,0.75,0.22
		c0.22-0.17,0.23-0.37-0.07-0.74c-0.3-0.36-0.46-0.43-0.81-0.32l-0.27,0.09c-0.62,0.2-0.96,0.06-1.39-0.46
		c-0.47-0.58-0.47-1.12,0.09-1.57c0.56-0.45,1.05-0.35,1.5,0.15v0.09l-0.35,0.38l-0.09,0.01c-0.24-0.27-0.45-0.35-0.67-0.18
		c-0.21,0.17-0.21,0.38,0.02,0.66c0.26,0.32,0.39,0.36,0.75,0.25l0.27-0.08c0.58-0.19,0.95-0.09,1.42,0.49
		C90.35,77.15,90.41,77.68,89.77,78.2"/>
	<polygon class="st1" points="92.52,75.72 92.43,75.72 89.9,73.09 89.85,73.09 89.36,73.55 89.27,73.55 88.93,73.19 88.93,73.1 
		90.45,71.65 90.54,71.65 90.88,72 90.88,72.1 90.4,72.56 90.4,72.61 92.92,75.24 92.92,75.33 	"/>
</g>
</svg>
