<?xml version="1.0" encoding="utf-8"?>
<!-- Generator: Adobe Illustrator 22.1.0, SVG Export Plug-In . SVG Version: 6.00 Build 0)  -->
<svg version="1.1" id="Layer_1" xmlns="http://www.w3.org/2000/svg" xmlns:xlink="http://www.w3.org/1999/xlink" x="0px" y="0px"
	 viewBox="0 0 34 439.1" style="enable-background:new 0 0 34 439.1;" xml:space="preserve">
<style type="text/css">
	.st0{fill:#822470;}
	.st1{clip-path:url(#SVGID_2_);fill:#4E4E50;}
	.st2{clip-path:url(#SVGID_4_);fill:#E2E2E2;}
	.st3{clip-path:url(#SVGID_6_);fill:#E2E2E2;}
	.st4{clip-path:url(#SVGID_8_);fill:#E2E2E2;}
	.st5{clip-path:url(#SVGID_10_);fill:#E2E2E2;}
	.st6{clip-path:url(#SVGID_12_);fill:#E2E2E2;}
	.st7{clip-path:url(#SVGID_14_);fill:#E2E2E2;}
	.st8{clip-path:url(#SVGID_16_);fill:#E2E2E2;}
	.st9{clip-path:url(#SVGID_18_);fill:#E2E2E2;}
	.st10{clip-path:url(#SVGID_20_);fill:#E2E2E2;}
	.st11{clip-path:url(#SVGID_22_);fill:#E2E2E2;}
	.st12{clip-path:url(#SVGID_24_);fill:#E2E2E2;}
	.st13{clip-path:url(#SVGID_26_);fill:#E2E2E2;}
	.st14{fill:#4E4E50;}
	.st15{fill:none;}
</style>
<path class="st0" d="M16.7,58.5c-0.1,0-0.1,0-0.2-0.1l-1.2-1.2c-0.1-0.1-0.1-0.3,0-0.4s0.3-0.1,0.4,0l1,1l2.3-2.3
	c0.1-0.1,0.3-0.1,0.4,0c0.1,0.1,0.1,0.3,0,0.4l-2.5,2.5C16.8,58.5,16.8,58.5,16.7,58.5z"/>
<g>
	<g>
		<defs>
			<rect id="SVGID_1_" x="6" y="52.9" width="22" height="8.2"/>
		</defs>
		<clipPath id="SVGID_2_">
			<use xlink:href="#SVGID_1_"  style="overflow:visible;"/>
		</clipPath>
		<path class="st1" d="M17.3,61.1c-2.3,0-4.1-1.8-4.1-4.1c0-2.3,1.8-4.1,4.1-4.1s4.1,1.8,4.1,4.1C21.4,59.3,19.5,61.1,17.3,61.1z
			 M17.3,53.4c-2,0-3.6,1.6-3.6,3.6s1.6,3.6,3.6,3.6s3.6-1.6,3.6-3.6S19.2,53.4,17.3,53.4z"/>
	</g>
	<g>
		<defs>
			<rect id="SVGID_3_" x="6" y="52.9" width="22" height="8.2"/>
		</defs>
		<clipPath id="SVGID_4_">
			<use xlink:href="#SVGID_3_"  style="overflow:visible;"/>
		</clipPath>
		<path class="st2" d="M25.6,54.6H22c-0.1,0-0.3-0.1-0.3-0.3c0-0.1,0.1-0.3,0.3-0.3h3.6c0.1,0,0.3,0.1,0.3,0.3
			C25.8,54.5,25.7,54.6,25.6,54.6z"/>
	</g>
	<g>
		<defs>
			<rect id="SVGID_5_" x="6" y="52.9" width="22" height="8.2"/>
		</defs>
		<clipPath id="SVGID_6_">
			<use xlink:href="#SVGID_5_"  style="overflow:visible;"/>
		</clipPath>
		<path class="st3" d="M9.8,57.3H6.3C6.1,57.3,6,57.1,6,57c0-0.1,0.1-0.3,0.3-0.3h3.6c0.1,0,0.2,0.2,0.2,0.3
			C10.1,57.1,10,57.3,9.8,57.3z"/>
	</g>
	<g>
		<defs>
			<rect id="SVGID_7_" x="6" y="52.9" width="22" height="8.2"/>
		</defs>
		<clipPath id="SVGID_8_">
			<use xlink:href="#SVGID_7_"  style="overflow:visible;"/>
		</clipPath>
		<path class="st4" d="M26.2,59.6h-3.6c-0.1,0-0.3-0.1-0.3-0.3c0-0.1,0.1-0.3,0.3-0.3h3.6c0.1,0,0.3,0.1,0.3,0.3
			C26.5,59.4,26.4,59.6,26.2,59.6z"/>
	</g>
	<g>
		<defs>
			<rect id="SVGID_9_" x="6" y="52.9" width="22" height="8.2"/>
		</defs>
		<clipPath id="SVGID_10_">
			<use xlink:href="#SVGID_9_"  style="overflow:visible;"/>
		</clipPath>
		<path class="st5" d="M27.2,57h-2c-0.1,0-0.3-0.1-0.3-0.3s0.1-0.3,0.3-0.3h2c0.1,0,0.3,0.1,0.3,0.3S27.4,57,27.2,57z"/>
	</g>
	<g>
		<defs>
			<rect id="SVGID_11_" x="6" y="52.9" width="22" height="8.2"/>
		</defs>
		<clipPath id="SVGID_12_">
			<use xlink:href="#SVGID_11_"  style="overflow:visible;"/>
		</clipPath>
		<path class="st6" d="M10.3,59.6h-2c-0.1,0-0.3-0.1-0.3-0.3C8,59.2,8.2,59,8.3,59h2c0.1,0,0.3,0.1,0.3,0.3
			C10.6,59.4,10.5,59.6,10.3,59.6z"/>
	</g>
	<g>
		<defs>
			<rect id="SVGID_13_" x="6" y="52.9" width="22" height="8.2"/>
		</defs>
		<clipPath id="SVGID_14_">
			<use xlink:href="#SVGID_13_"  style="overflow:visible;"/>
		</clipPath>
		<path class="st7" d="M11.9,54.7h-2c-0.1,0-0.3-0.1-0.3-0.3s0.1-0.3,0.3-0.3h2c0.1,0,0.3,0.1,0.3,0.3S12,54.7,11.9,54.7z"/>
	</g>
	<g>
		<defs>
			<rect id="SVGID_15_" x="6" y="52.9" width="22" height="8.2"/>
		</defs>
		<clipPath id="SVGID_16_">
			<use xlink:href="#SVGID_15_"  style="overflow:visible;"/>
		</clipPath>
		<path class="st8" d="M27.4,54.7c-0.2,0-0.4-0.2-0.4-0.4c0-0.2,0.2-0.4,0.4-0.4c0.2,0,0.4,0.2,0.4,0.4
			C27.8,54.5,27.6,54.7,27.4,54.7z M27.4,54.2c-0.1,0-0.1,0.1-0.1,0.1c0,0.1,0.1,0.1,0.1,0.1c0.1,0,0.1-0.1,0.1-0.1
			C27.5,54.2,27.4,54.2,27.4,54.2z"/>
	</g>
	<g>
		<defs>
			<rect id="SVGID_17_" x="6" y="52.9" width="22" height="8.2"/>
		</defs>
		<clipPath id="SVGID_18_">
			<use xlink:href="#SVGID_17_"  style="overflow:visible;"/>
		</clipPath>
		<path class="st9" d="M8.2,54.7c-0.2,0-0.4-0.2-0.4-0.4c0-0.2,0.2-0.4,0.4-0.4s0.4,0.2,0.4,0.4S8.4,54.7,8.2,54.7z M8.2,54.2
			c-0.1,0-0.2,0-0.2,0.1c0,0.1,0.1,0.1,0.1,0.1c0.1,0,0.1-0.1,0.1-0.1C8.3,54.2,8.2,54.2,8.2,54.2z"/>
	</g>
	<g>
		<defs>
			<rect id="SVGID_19_" x="6" y="52.9" width="22" height="8.2"/>
		</defs>
		<clipPath id="SVGID_20_">
			<use xlink:href="#SVGID_19_"  style="overflow:visible;"/>
		</clipPath>
		<path class="st10" d="M27.6,59.6c-0.2,0-0.4-0.2-0.4-0.4c0-0.2,0.2-0.4,0.4-0.4c0.2,0,0.4,0.2,0.4,0.4
			C28,59.4,27.8,59.6,27.6,59.6z M27.6,59c-0.1,0-0.1,0.1-0.1,0.1c0,0.1,0.1,0.1,0.1,0.1c0.1,0,0.1-0.1,0.1-0.1S27.7,59,27.6,59z"/>
	</g>
	<g>
		<defs>
			<rect id="SVGID_21_" x="6" y="52.9" width="22" height="8.2"/>
		</defs>
		<clipPath id="SVGID_22_">
			<use xlink:href="#SVGID_21_"  style="overflow:visible;"/>
		</clipPath>
		<path class="st11" d="M12,59.6c-0.2,0-0.4-0.2-0.4-0.4c0-0.2,0.2-0.4,0.4-0.4c0.2,0,0.4,0.2,0.4,0.4C12.4,59.4,12.2,59.6,12,59.6z
			 M12,59c-0.1,0-0.1,0.1-0.1,0.1c0,0.1,0.1,0.1,0.1,0.1c0.1,0,0.1-0.1,0.1-0.1S12.1,59,12,59z"/>
	</g>
	<g>
		<defs>
			<rect id="SVGID_23_" x="6" y="52.9" width="22" height="8.2"/>
		</defs>
		<clipPath id="SVGID_24_">
			<use xlink:href="#SVGID_23_"  style="overflow:visible;"/>
		</clipPath>
		<path class="st12" d="M23.8,57c-0.2,0-0.4-0.2-0.4-0.4s0.2-0.4,0.4-0.4s0.4,0.2,0.4,0.4C24.2,56.8,24,57,23.8,57z M23.8,56.5
			c-0.1,0-0.1,0.1-0.1,0.1l0.1,0.1c0.1,0,0.1-0.1,0.1-0.1L23.8,56.5z"/>
	</g>
	<g>
		<defs>
			<rect id="SVGID_25_" x="6" y="52.9" width="22" height="8.2"/>
		</defs>
		<clipPath id="SVGID_26_">
			<use xlink:href="#SVGID_25_"  style="overflow:visible;"/>
		</clipPath>
		<path class="st13" d="M11.2,57.5c-0.2,0-0.4-0.2-0.4-0.4s0.2-0.4,0.4-0.4s0.4,0.2,0.4,0.4S11.5,57.5,11.2,57.5z M11.2,57
			c-0.1,0-0.1,0.1-0.1,0.1c0,0.1,0.1,0.1,0.1,0.1c0.1,0,0.1-0.1,0.1-0.1C11.4,57.1,11.3,57,11.2,57z"/>
	</g>
</g>
<path class="st14" d="M17,35.5c-6.1,0-11-4.9-11-11s4.9-11,11-11s11,4.9,11,11S23.1,35.5,17,35.5z M17,14.9c-5.3,0-9.6,4.3-9.6,9.6
	s4.3,9.6,9.6,9.6s9.6-4.3,9.6-9.6S22.3,14.9,17,14.9z"/>
<path class="st0" d="M17,26.6c-0.4,0-0.7-0.3-0.7-0.7V19c0-0.4,0.3-0.7,0.7-0.7s0.7,0.3,0.7,0.7v6.9C17.7,26.3,17.4,26.6,17,26.6z"
	/>
<path class="st0" d="M17,30.7c-0.8,0-1.4-0.6-1.4-1.4s0.6-1.4,1.4-1.4s1.4,0.6,1.4,1.4S17.8,30.7,17,30.7z M17,29.3L17,29.3h0.7H17z
	"/>
<path class="st14" d="M9.3,81.8c-1.8,0-3.3,1.5-3.3,3.3c0,1.8,1.5,3.3,3.3,3.3s3.3-1.5,3.3-3.3C12.6,83.3,11.1,81.8,9.3,81.8z
	 M9.3,86.8c-1,0-1.7-0.8-1.7-1.7c0-0.9,0.8-1.7,1.7-1.7c1,0,1.7,0.8,1.7,1.7C11,86,10.2,86.8,9.3,86.8z"/>
<path class="st14" d="M11.8,96.3c-0.5,0-0.8-0.4-0.8-0.8V92c0-1-0.8-1.7-1.7-1.7c-1,0-1.7,0.8-1.7,1.7v3.5c0,0.4-0.3,0.8-0.8,0.8
	S6,95.9,6,95.5V92c0-1.8,1.5-3.3,3.3-3.3s3.3,1.5,3.3,3.3v3.5C12.5,95.9,12.2,96.3,11.8,96.3z"/>
<path class="st0" d="M17,81.8c-1.8,0-3.3,1.5-3.3,3.3c0,1.8,1.5,3.3,3.3,3.3s3.3-1.5,3.3-3.3C20.3,83.3,18.8,81.8,17,81.8z M17,86.8
	c-1,0-1.7-0.8-1.7-1.7c0-0.9,0.7-1.7,1.7-1.7s1.7,0.8,1.7,1.7C18.7,86,18,86.8,17,86.8z"/>
<path class="st0" d="M19.5,96.3c-0.4,0-0.8-0.3-0.8-0.8V92c0-1-0.8-1.7-1.7-1.7c-1,0-1.7,0.8-1.7,1.7v3.5c0,0.4-0.3,0.8-0.8,0.8
	s-0.8-0.4-0.8-0.8V92c0-1.8,1.5-3.3,3.3-3.3s3.3,1.5,3.3,3.3v3.5C20.3,95.9,19.9,96.3,19.5,96.3z"/>
<path class="st14" d="M24.7,81.8c-1.8,0-3.3,1.5-3.3,3.3c0,1.8,1.5,3.3,3.3,3.3s3.3-1.5,3.3-3.3C28,83.3,26.5,81.8,24.7,81.8z
	 M24.7,86.8c-1,0-1.7-0.8-1.7-1.7c0-0.9,0.8-1.7,1.7-1.7c1,0,1.7,0.8,1.7,1.7C26.4,86,25.7,86.8,24.7,86.8z"/>
<path class="st14" d="M27.2,96.3c-0.4,0-0.8-0.3-0.8-0.8V92c0-1-0.8-1.7-1.7-1.7c-1,0-1.7,0.8-1.7,1.7v3.5c0,0.4-0.3,0.8-0.8,0.8
	c-0.4,0-0.8-0.3-0.8-0.8V92c0-1.8,1.5-3.3,3.3-3.3S28,90.2,28,92v3.5C28,95.9,27.7,96.3,27.2,96.3z"/>
<path class="st14" d="M27.1,126.1h-11c-0.5,0-0.9-0.4-0.9-0.9s0.4-0.9,0.9-0.9h11c0.5,0,0.9,0.4,0.9,0.9S27.6,126.1,27.1,126.1z"/>
<path class="st14" d="M27.1,129.6h-11c-0.5,0-0.9-0.4-0.9-0.9s0.4-0.9,0.9-0.9h11c0.5,0,0.9,0.4,0.9,0.9S27.6,129.6,27.1,129.6z"/>
<path class="st0" d="M9.7,113.7c-2,0-3.7,1.6-3.7,3.7s1.7,3.7,3.7,3.7s3.7-1.7,3.7-3.7S11.7,113.7,9.7,113.7z M9.7,119.2
	c-1.1,0-2-0.9-2-1.9s0.9-1.9,1.9-1.9c1.1,0,1.9,0.9,1.9,1.9S10.8,119.2,9.7,119.2z"/>
<path class="st0" d="M12.5,129.9c-0.5,0-0.9-0.4-0.9-0.9v-4c0-1.1-0.9-1.9-1.9-1.9c-1.1,0-1.9,0.9-1.9,1.9v4c0,0.5-0.4,0.9-0.9,0.9
	S6,129.4,6,128.9v-4c0-2,1.7-3.7,3.7-3.7s3.7,1.7,3.7,3.7v4C13.4,129.4,13,129.9,12.5,129.9z"/>
<path class="st14" d="M19,121.4c-0.3,0-0.5-0.1-0.7-0.3l-1.7-2.3c-0.3-0.4-0.2-0.9,0.2-1.2c0.4-0.4,0.9-0.3,1.2,0.1l1.3,1.7l5.7-3.6
	c0.4-0.3,0.9-0.1,1.2,0.3c0.3,0.4,0.1,0.9-0.3,1.2l-6.4,4.1C19.3,121.4,19.2,121.4,19,121.4z"/>
<g>
	<path class="st14" d="M17.7,154.4c0.3,0,0.5-0.2,0.5-0.5v-2.3c0-0.1-0.1-0.3-0.2-0.4l-3.9-4c0-0.1-0.2-0.2-0.3-0.2H6.5
		c-0.3,0-0.5,0.3-0.5,0.6v14.7c0,0.3,0.2,0.5,0.5,0.5h11.2c0.3,0,0.5-0.2,0.5-0.5v-2.4c0-0.3-0.2-0.5-0.5-0.5
		c-0.3,0-0.5,0.2-0.5,0.5v1.8H7.1v-13.6h6.2v3.5c0,0.3,0.2,0.5,0.5,0.5h3.4v1.7C17.2,154.1,17.4,154.4,17.7,154.4z M14.3,148.9
		l2.1,2.2h-2.1V148.9z"/>
	<path class="st14" d="M11.6,153.8H8.4c-0.3,0-0.5,0.2-0.5,0.5s0.2,0.5,0.5,0.5h3.1c0.3,0,0.5-0.2,0.5-0.5
		C12.1,154.1,11.9,153.8,11.6,153.8z"/>
	<path class="st14" d="M11.6,156.4H8.4c-0.3,0-0.5,0.2-0.5,0.5c0,0.3,0.2,0.5,0.5,0.5h3.1c0.3,0,0.5-0.2,0.5-0.5
		C12.1,156.6,11.9,156.4,11.6,156.4z"/>
</g>
<path class="st0" d="M27.5,151h-3.4c-0.3,0-0.5,0.2-0.5,0.5s0.2,0.5,0.5,0.5h2l-4.2,4.2l-1.6-1.6c-0.2-0.2-0.5-0.2-0.8,0l-5,5
	c-0.2,0.2-0.2,0.5,0,0.8c0.1,0.1,0.2,0.2,0.4,0.2s0.3-0.1,0.4-0.2l4.6-4.6l1.6,1.6c0.2,0.2,0.5,0.2,0.8,0l4.7-4.7v2.4
	c0,0.3,0.2,0.5,0.5,0.5s0.5-0.2,0.5-0.5v-3.5C28,151.3,27.8,151,27.5,151z"/>
<g>
	<path class="st0" d="M18.3,184.7H9.7c-0.3,0-0.6,0.3-0.6,0.6v3.6c0,0.3,0.3,0.6,0.6,0.6h8.6c0.3,0,0.6-0.3,0.6-0.6v-3.6
		C18.9,184.9,18.6,184.7,18.3,184.7z M17.7,188.3h-7.4v-2.4h7.4V188.3z"/>
	<g>
		<path class="st14" d="M27.4,177.7H12.3c-0.1,0-0.2,0-0.3,0.1c-0.1,0-0.1,0-0.2,0.1c-0.2,0.1-0.3,0.3-0.3,0.5v3.1H6.6
			c-0.3,0-0.6,0.3-0.6,0.6v13.2c0,0.4,0.3,0.7,0.6,0.7h15.1c0.3,0,0.6-0.3,0.6-0.6v-3.2h5.1c0.3,0,0.6-0.3,0.6-0.6v-13.3
			C28,178,27.7,177.7,27.4,177.7z M12.8,179.3l5.6,2.2h-5.6V179.3z M21.1,194.7H7.2v-12h4.9l0,0l0,0H21v12H21.1z M26.8,190.9h-4.5
			v-8.8l0,0c0-0.1,0-0.1,0-0.2v-0.1c0,0,0-0.1-0.1-0.1c0,0,0-0.1-0.1-0.1c0,0,0,0-0.1,0l-0.1-0.1l0,0l-6.7-2.6h11.5L26.8,190.9
			L26.8,190.9z"/>
		<path class="st14" d="M9.8,191.7c-0.3,0-0.6,0.3-0.6,0.6s0.3,0.6,0.6,0.6h8.6c0.3,0,0.6-0.3,0.6-0.6s-0.3-0.6-0.6-0.6H9.8z"/>
	</g>
</g>
<g>
	<path class="st14" d="M27.9,212.2c0-0.3-0.2-0.5-0.5-0.5H11.9c-0.3,0.1-0.5,0.3-0.5,0.5v7.4c0,0.3,0.2,0.5,0.5,0.5
		c0.3,0,0.5-0.2,0.5-0.5v-6.9h0.1c-0.2,0.2-0.2,0.5,0,0.6l6.9,5.7c0.1,0.1,0.2,0.1,0.3,0.1c0.1,0,0.2,0,0.3-0.1l6.8-5.7
		c0.1-0.1,0.1-0.1,0.1-0.2l0.1,9.7H15.6c-0.2,0-0.5,0.2-0.6,0.4c-0.1,0.3,0,0.5,0.3,0.6c0.1,0,0.1,0,0.2,0h12c0.1,0,0.3-0.1,0.3-0.1
		c0.1-0.1,0.1-0.2,0.1-0.3V212.2z M19.7,218l-6.3-5.3h12.7L19.7,218z M26.9,212.7L26.9,212.7L26.9,212.7
		C26.9,212.8,26.9,212.8,26.9,212.7z"/>
	<g>
		<path class="st0" d="M15.4,220.8H8.6c-0.3,0-0.5,0.2-0.5,0.5s0.2,0.5,0.5,0.5h6.8c0.3,0,0.5-0.2,0.5-0.5S15.7,220.8,15.4,220.8z"
			/>
		<path class="st0" d="M11.8,225.2H6.5c-0.3,0-0.5,0.2-0.5,0.5s0.2,0.5,0.5,0.5h5.3c0.3,0,0.5-0.2,0.5-0.5S12.1,225.2,11.8,225.2z"
			/>
		<path class="st0" d="M13.1,223H9.8c-0.3,0-0.5,0.2-0.5,0.5s0.2,0.5,0.5,0.5h3.3c0.3,0,0.5-0.2,0.5-0.5
			C13.6,223.3,13.4,223,13.1,223z"/>
		<path class="st0" d="M7.6,224H8c0.3,0,0.5-0.2,0.5-0.5c0-0.2-0.2-0.5-0.5-0.5H7.6c-0.3,0-0.5,0.2-0.5,0.5S7.4,224,7.6,224z"/>
	</g>
</g>
<g>
	<path class="st15" d="M19.1,246.3c1.4,1.9,1.7,4.3,1,6.6c-0.4,1.2-1.1,2.2-2,3c0.8,0.4,1.7,0.6,2.7,0.6h1.8c0.7,0,1.4,0.2,2,0.6
		l2.1,1.6c0.1,0,0.1,0,0.1,0l0.1-0.1v-8.3v-0.1c-0.2-3.2-2.9-5.8-6.1-5.8c-1,0-1.9,0.2-2.8,0.7C18.4,245.5,18.7,245.9,19.1,246.3z"
		/>
	<path class="st15" d="M19,252.6c0.6-2,0.3-4-0.8-5.6c-1.1-1.6-3-2.5-4.9-2.5c-3.3-0.1-6,2.5-6.1,5.7c0,0,0,0,0,0.1v0.1v8.3
		c0,0.1,0,0.1,0.1,0.1h0.1l2.1-1.6c0.6-0.4,1.3-0.7,2-0.6h1.7C15.9,256.6,18.2,255,19,252.6z"/>
	<path class="st14" d="M28,250.1c-0.2-3.8-3.4-6.8-7.2-6.8c-1.3,0-2.7,0.4-3.8,1.1c0.4,0.2,0.7,0.5,1,0.7c0.9-0.4,1.8-0.7,2.8-0.7
		c3.2,0,5.9,2.5,6.1,5.8v0.1v8.3c0,0.1,0,0.1-0.1,0.1h-0.1l-2.1-1.6c-0.6-0.4-1.3-0.7-2-0.6h-1.8c-1.1,0-1.9-0.2-2.7-0.6
		c-0.3,0.3-0.6,0.5-1,0.7c1.1,0.7,2.3,1.1,3.7,1.1h0.1h1.7c0.5,0,0.9,0.1,1.3,0.4l2.1,1.6c0.2,0.2,0.5,0.3,0.8,0.3
		c0.2,0,0.4,0,0.6-0.1c0.4-0.2,0.7-0.7,0.7-1.1v-8.3C28,250.3,28,250.2,28,250.1z"/>
	<path class="st0" d="M20,252.9c0.8-2.3,0.4-4.7-1-6.6c-0.3-0.4-0.7-0.8-1.1-1.2c-0.3-0.3-0.7-0.5-1-0.7c-1-0.7-2.3-1.1-3.7-1.1
		c-3.8,0-7,3-7.2,6.8c0,0.1,0,0.2,0,0.3v8.3c0,0.5,0.3,0.9,0.7,1.1c0.2,0.1,0.4,0.2,0.6,0.2c0.3,0,0.5-0.1,0.8-0.3l2.1-1.6
		c0.4-0.3,0.8-0.4,1.2-0.4l0,0h1.7h0.1c1.4,0,2.7-0.4,3.8-1.1c0.4-0.2,0.7-0.5,1-0.7C18.9,255.2,19.6,254.1,20,252.9z M13.2,256.6
		h-1.7c-0.7,0-1.4,0.2-2,0.6l-2.1,1.6c-0.1,0-0.1,0-0.1,0l-0.1-0.1v-8.3v-0.1c0,0,0,0,0-0.1c0.1-3.2,2.8-5.8,6-5.8
		c1.9,0,3.8,0.9,4.9,2.5c1.2,1.6,1.5,3.6,0.8,5.6C18.2,255,15.9,256.6,13.2,256.6z"/>
</g>
<g>
	<path class="st15" d="M16.4,250.8c-0.2,0-0.3,0.1-0.3,0.3c0,0.2,0.1,0.3,0.3,0.3s0.3-0.1,0.3-0.3C16.7,250.9,16.6,250.8,16.4,250.8
		z"/>
	<path class="st15" d="M12.9,250.8c-0.2,0-0.3,0.1-0.3,0.3c0,0.2,0.1,0.3,0.3,0.3c0.2,0,0.3-0.1,0.3-0.3
		C13.2,250.9,13.1,250.8,12.9,250.8z"/>
	<circle class="st15" cx="9.4" cy="251.1" r="0.3"/>
	<path class="st14" d="M9.4,249.7c-0.8,0-1.4,0.6-1.4,1.4c0,0.8,0.6,1.4,1.4,1.4c0.8,0,1.4-0.6,1.4-1.4
		C10.8,250.3,10.2,249.7,9.4,249.7z M9.4,251.4c-0.2,0-0.3-0.1-0.3-0.3c0-0.2,0.1-0.3,0.3-0.3c0.2,0,0.3,0.1,0.3,0.3
		C9.7,251.2,9.6,251.4,9.4,251.4z"/>
	<path class="st14" d="M12.9,249.7c-0.8,0-1.4,0.6-1.4,1.4c0,0.8,0.6,1.4,1.4,1.4c0.8,0,1.4-0.6,1.4-1.4
		C14.3,250.3,13.7,249.7,12.9,249.7z M12.9,251.4c-0.2,0-0.3-0.1-0.3-0.3c0-0.2,0.1-0.3,0.3-0.3c0.2,0,0.3,0.1,0.3,0.3
		C13.2,251.2,13.1,251.4,12.9,251.4z"/>
	<path class="st14" d="M16.4,249.7c-0.8,0-1.4,0.6-1.4,1.4c0,0.8,0.6,1.4,1.4,1.4c0.8,0,1.4-0.6,1.4-1.4
		C17.8,250.3,17.2,249.7,16.4,249.7z M16.4,251.4c-0.2,0-0.3-0.1-0.3-0.3c0-0.2,0.1-0.3,0.3-0.3s0.3,0.1,0.3,0.3
		C16.7,251.2,16.6,251.4,16.4,251.4z"/>
</g>
<g>
	<rect x="13.5" y="276" class="st15" width="3.7" height="15.8"/>
	<rect x="18.5" y="287.8" class="st15" width="8.3" height="4"/>
	<rect x="18.5" y="276" class="st15" width="8.3" height="10.6"/>
	<path class="st0" d="M9.9,277.7c0.1,0.1,0.3,0.2,0.4,0.2c0.2,0,0.3-0.1,0.4-0.2c0.3-0.3,0.3-0.6,0.1-0.9L8.9,275
		c-0.1-0.2-0.3-0.2-0.4-0.2c-0.2,0-0.3,0-0.5,0.2l-1.7,1.7c-0.3,0.3-0.3,0.7,0,0.9c0.3,0.2,0.6,0.2,0.9,0l0.7-0.7v13.9L7.1,290
		c-0.2-0.2-0.6-0.2-0.9,0c-0.2,0.2-0.2,0.6,0,0.9l1.8,1.9c0.2,0.1,0.3,0.2,0.5,0.2s0.3-0.1,0.4-0.2l1.8-1.8c0.2-0.2,0.2-0.6,0-0.9
		c-0.2-0.2-0.6-0.2-0.9,0L9,290.9v-14.1L9.9,277.7z"/>
	<path class="st14" d="M26.9,274.8H13.4c-0.6,0-1.1,0.5-1.1,1.1v16c0,0.6,0.5,1.1,1.1,1.1h13.5c0.6,0,1.1-0.5,1.1-1.1v-16
		C28,275.3,27.5,274.8,26.9,274.8z M17.2,291.8h-3.7V276h3.7V291.8z M26.8,291.8h-8.3v-4h8.3V291.8z M26.8,286.6h-8.3V276h8.3V286.6
		z"/>
</g>
<g>
	<polygon class="st15" points="14.6,314.2 14.6,319.5 14.7,319.5 19.3,316.9 19.3,316.8 14.7,314.1 	"/>
	<path class="st15" d="M25.3,309.6H8.7c-0.9,0-1.6,0.7-1.6,1.6v11.3c0,0.9,0.7,1.6,1.6,1.6h16.6c0.9,0,1.6-0.7,1.6-1.6v-11.3
		C26.9,310.3,26.2,309.6,25.3,309.6z M19.9,317.8l-4.6,2.7c-0.2,0.1-0.4,0.2-0.6,0.2c-0.2,0-0.4-0.1-0.6-0.2c-0.4-0.2-0.6-0.6-0.6-1
		v-5.3c0-0.4,0.2-0.8,0.6-1c0.4-0.2,0.8-0.2,1.2,0l4.6,2.7c0.4,0.2,0.6,0.6,0.6,1S20.3,317.6,19.9,317.8z"/>
	<path class="st14" d="M25.3,308.5H8.7c-1.5,0-2.7,1.2-2.7,2.7v11.3c0,1.5,1.2,2.7,2.7,2.7h16.6c1.5,0,2.7-1.2,2.7-2.7v-11.3
		C28,309.7,26.8,308.5,25.3,308.5z M26.9,322.5c0,0.9-0.7,1.6-1.6,1.6H8.7c-0.9,0-1.6-0.7-1.6-1.6v-11.3c0-0.9,0.7-1.6,1.6-1.6h16.6
		c0.9,0,1.6,0.7,1.6,1.6L26.9,322.5z"/>
	<path class="st0" d="M19.9,315.8l-4.6-2.7c-0.4-0.2-0.8-0.2-1.2,0c-0.4,0.2-0.6,0.6-0.6,1v5.3c0,0.4,0.2,0.8,0.6,1
		c0.2,0.1,0.4,0.2,0.6,0.2c0.2,0,0.4-0.1,0.6-0.2l4.6-2.7c0.4-0.2,0.6-0.6,0.6-1C20.5,316.3,20.3,316,19.9,315.8z M19.3,316.9
		l-4.6,2.7h-0.1v-5.4h0.1L19.3,316.9L19.3,316.9z"/>
</g>
<g>
	<path class="st14" d="M21.9,352.3c-0.5,0-0.9,0.4-0.9,0.9v1.8c0,0.5-0.4,0.9-0.9,0.9H8.6c-0.5,0-0.9-0.4-0.9-0.9v-11.3
		c0-0.5,0.4-0.9,0.9-0.9h11.5c0.5,0,0.9,0.4,0.9,0.9v1.5c0,0.5,0.4,0.9,0.9,0.9s0.9-0.4,0.9-0.9v-1.5c0-1.5-1.2-2.7-2.7-2.7H8.6
		c-1.5,0-2.7,1.2-2.7,2.7V355c0,1.5,1.2,2.7,2.7,2.7h11.5c1.5,0,2.7-1.2,2.7-2.7v-1.9C22.8,352.7,22.4,352.3,21.9,352.3z"/>
	<path class="st0" d="M8.9,345.3c0,0.5,0.4,0.9,0.9,0.9h0.1c0.5,0,0.8-0.4,0.8-0.9s-0.5-0.8-0.9-0.8C9.4,344.5,8.9,344.9,8.9,345.3z
		"/>
	<path class="st0" d="M12.7,344.5c-0.5,0-0.9,0.4-0.9,0.9s0.4,0.9,0.9,0.9h5.7c0.5,0,0.9-0.4,0.9-0.9s-0.4-0.9-0.9-0.9H12.7z"/>
	<path class="st0" d="M27.7,343.1c-0.3-0.3-0.9-0.3-1.2,0l-9.3,9.3l-2.5-2.5c-0.3-0.3-0.9-0.3-1.2,0c-0.3,0.3-0.3,0.9,0,1.2l3.1,3.1
		c0.2,0.2,0.4,0.3,0.6,0.3s0.4-0.1,0.6-0.3l10-10C28.1,344,28.1,343.4,27.7,343.1z"/>
</g>
<g>
	<path class="st0" d="M27.2,377.4h-2v-1.8h2c0.4,0,0.8-0.3,0.8-0.8c0-0.4-0.4-0.8-0.8-0.8h-8.3c-0.4,0-0.8,0.3-0.8,0.8
		c0,0.4,0.4,0.8,0.8,0.8h4.8v1.7h-4.8c-0.4,0-0.8,0.3-0.8,0.8c0,0.4,0.4,0.8,0.8,0.8h4.6c-0.1,0.3-0.3,0.6-0.5,0.8
		c-0.8,0.8-2.2,1.1-4.1,1c-0.3,0-0.6,0.2-0.7,0.5c-0.1,0.3-0.1,0.6,0.2,0.9l5.4,5.5c0.2,0.2,0.4,0.2,0.6,0.2s0.4-0.1,0.5-0.2
		c0.3-0.3,0.3-0.8,0-1.1l-4.1-4.2c1.5-0.2,2.6-0.7,3.4-1.5c0.7-0.7,0.9-1.4,1-1.9h2.1c0.4,0,0.8-0.3,0.8-0.8
		C28,377.7,27.6,377.4,27.2,377.4z"/>
	<path class="st14" d="M19.7,385.9c-0.3-0.3-0.8-0.3-1.1,0l-1.2,1.2l-1.2-1.2c-0.3-0.3-0.8-0.3-1.1,0l-1.2,1.2l-1.3-1.3
		c-0.3-0.3-0.8-0.3-1.1,0l-1.2,1.2l-1.2-1.2c-0.3-0.3-0.8-0.3-1.1,0l-0.4,0.4v-10.6h6.8c0.4,0,0.8-0.3,0.8-0.8s-0.4-0.8-0.8-0.8H6.8
		c-0.4,0-0.8,0.3-0.8,0.8v13.4c0,0.3,0.2,0.6,0.5,0.7s0.6,0.1,0.8-0.2l1.2-1.2l1.2,1.2c0.3,0.3,0.8,0.3,1.1,0l1.2-1.2l1.3,1.3
		c0.3,0.3,0.8,0.3,1.1,0l1.2-1.2l1.2,1.2c0.3,0.3,0.8,0.3,1.1,0l1.2-1.2l1.2,1.2c0.2,0.2,0.4,0.2,0.6,0.2s0.4-0.1,0.6-0.2
		c0.3-0.3,0.3-0.8,0-1.1L19.7,385.9z"/>
	<path class="st14" d="M8.5,378.1c0,0.4,0.4,0.8,0.8,0.8h6.9c0.4,0,0.8-0.3,0.8-0.8s-0.4-0.8-0.8-0.8H9.3
		C8.9,377.4,8.5,377.7,8.5,378.1z"/>
	<path class="st14" d="M16.2,380.8h-4.4c-0.4,0-0.8,0.4-0.8,0.8s0.4,0.8,0.8,0.8h4.4c0.4,0,0.8-0.4,0.8-0.8S16.6,380.8,16.2,380.8z"
		/>
	<path class="st14" d="M8.8,381.1c-0.3,0.3-0.3,0.8,0,1.1c0.2,0.2,0.4,0.2,0.6,0.2l0,0c0.4,0,0.8-0.4,0.8-0.8c0-0.3-0.2-0.6-0.5-0.7
		C9.4,380.8,9,380.9,8.8,381.1z"/>
</g>
<g>
	<path class="st14" d="M16,418.8c-0.8,0.4-1.6,0.6-2.5,0.6c-3.3,0-5.9-2.7-5.9-5.9c0-3.3,2.7-5.9,5.9-5.9c3.3,0,5.9,2.6,5.9,5.9
		c0,0.4,0.3,0.8,0.8,0.8l0,0c0.4,0,0.8-0.4,0.8-0.8c0-4.2-3.4-7.5-7.5-7.5S6,409.3,6,413.4s3.4,7.5,7.5,7.5c1.1,0,2.2-0.2,3.2-0.7
		c0.4-0.2,0.6-0.6,0.4-1C16.8,418.8,16.4,418.6,16,418.8z"/>
	<path class="st0" d="M16.3,411c0.4,0,0.8-0.3,0.8-0.8c0-0.4-0.3-0.8-0.8-0.8h-5c-0.4,0-0.8,0.3-0.8,0.8c0,0.4,0.3,0.8,0.8,0.8h2.5
		v0.4h-2.5c-0.4,0-0.8,0.3-0.8,0.8c0,0.4,0.3,0.8,0.8,0.8h2.2c-0.4,0.4-1.2,0.5-2.2,0.5c-0.3,0-0.6,0.2-0.7,0.5s-0.1,0.6,0.2,0.9
		l3.2,3.2c0.2,0.2,0.4,0.2,0.6,0.2c0.2,0,0.4-0.1,0.5-0.2c0.3-0.3,0.3-0.8,0-1.1l-2.1-2.1c0.7-0.2,1.2-0.4,1.6-0.9
		c0.4-0.4,0.5-0.7,0.6-1.1h1c0.4,0,0.8-0.3,0.8-0.8c0-0.4-0.3-0.8-0.8-0.8h-0.7V411H16.3z"/>
	<path class="st0" d="M27.8,411.2c-0.3-0.3-0.8-0.3-1.1,0l-6.3,6.3l-2.2-2.2c-0.3-0.3-0.8-0.3-1.1,0c-0.3,0.3-0.3,0.8,0,1.1l2.8,2.8
		c0.1,0.1,0.3,0.2,0.5,0.2c0.2,0,0.4-0.1,0.5-0.2l6.9-6.9C28.1,412,28.1,411.6,27.8,411.2z"/>
</g>
</svg>
